<svg xmlns="http://www.w3.org/2000/svg" xmlns:xlink="http://www.w3.org/1999/xlink" width="1920" height="797" viewBox="0 0 1920 797"><defs><filter id="a" x="1181.319" y="-9.667" width="403.849" height="405.068" filterUnits="userSpaceOnUse"><feOffset dy="20" input="SourceAlpha"/><feGaussianBlur stdDeviation="10" result="b"/><feFlood flood-opacity="0.161"/><feComposite operator="in" in2="b"/><feComposite in="SourceGraphic"/></filter><filter id="c" x="534.159" y="-9.667" width="403.85" height="405.068" filterUnits="userSpaceOnUse"><feOffset dy="20" input="SourceAlpha"/><feGaussianBlur stdDeviation="10" result="d"/><feFlood flood-opacity="0.161"/><feComposite operator="in" in2="d"/><feComposite in="SourceGraphic"/></filter><filter id="e" x="211.036" y="-9.667" width="403.85" height="405.068" filterUnits="userSpaceOnUse"><feOffset dy="20" input="SourceAlpha"/><feGaussianBlur stdDeviation="10" result="f"/><feFlood flood-opacity="0.161"/><feComposite operator="in" in2="f"/><feComposite in="SourceGraphic"/></filter><filter id="g" x="-113" y="-9.667" width="403.85" height="405.068" filterUnits="userSpaceOnUse"><feOffset dy="20" input="SourceAlpha"/><feGaussianBlur stdDeviation="10" result="h"/><feFlood flood-opacity="0.161"/><feComposite operator="in" in2="h"/><feComposite in="SourceGraphic"/></filter><filter id="i" x="-112.088" y="392.28" width="403.85" height="405.068" filterUnits="userSpaceOnUse"><feOffset dy="20" input="SourceAlpha"/><feGaussianBlur stdDeviation="10" result="j"/><feFlood flood-opacity="0.161"/><feComposite operator="in" in2="j"/><feComposite in="SourceGraphic"/></filter><filter id="k" x="859.108" y="392.28" width="403.85" height="405.068" filterUnits="userSpaceOnUse"><feOffset dy="20" input="SourceAlpha"/><feGaussianBlur stdDeviation="10" result="l"/><feFlood flood-opacity="0.161"/><feComposite operator="in" in2="l"/><feComposite in="SourceGraphic"/></filter><filter id="m" x="535.072" y="392.28" width="403.85" height="405.068" filterUnits="userSpaceOnUse"><feOffset dy="20" input="SourceAlpha"/><feGaussianBlur stdDeviation="10" result="n"/><feFlood flood-opacity="0.161"/><feComposite operator="in" in2="n"/><feComposite in="SourceGraphic"/></filter><filter id="o" x="211.949" y="392.28" width="403.85" height="405.068" filterUnits="userSpaceOnUse"><feOffset dy="20" input="SourceAlpha"/><feGaussianBlur stdDeviation="10" result="p"/><feFlood flood-opacity="0.161"/><feComposite operator="in" in2="p"/><feComposite in="SourceGraphic"/></filter><filter id="q" x="857.282" y="-9.667" width="403.85" height="405.068" filterUnits="userSpaceOnUse"><feOffset dy="20" input="SourceAlpha"/><feGaussianBlur stdDeviation="10" result="r"/><feFlood flood-opacity="0.161"/><feComposite operator="in" in2="r"/><feComposite in="SourceGraphic"/></filter><filter id="s" x="1182.231" y="392.28" width="403.849" height="405.068" filterUnits="userSpaceOnUse"><feOffset dy="20" input="SourceAlpha"/><feGaussianBlur stdDeviation="10" result="t"/><feFlood flood-opacity="0.161"/><feComposite operator="in" in2="t"/><feComposite in="SourceGraphic"/></filter><filter id="u" x="1507" y="-9.667" width="403.849" height="405.068" filterUnits="userSpaceOnUse"><feOffset dy="20" input="SourceAlpha"/><feGaussianBlur stdDeviation="10" result="v"/><feFlood flood-opacity="0.161"/><feComposite operator="in" in2="v"/><feComposite in="SourceGraphic"/></filter><filter id="w" x="1507.912" y="392.28" width="403.849" height="405.068" filterUnits="userSpaceOnUse"><feOffset dy="20" input="SourceAlpha"/><feGaussianBlur stdDeviation="10" result="x"/><feFlood flood-opacity="0.161"/><feComposite operator="in" in2="x"/><feComposite in="SourceGraphic"/></filter><clipPath id="z"><rect width="1920" height="797"/></clipPath></defs><g id="y" clip-path="url(#z)"><g transform="translate(1211.319 0.333)"><g transform="translate(0 0)"><g transform="matrix(1, 0, 0, 1, -1211.32, -0.33)" filter="url(#a)"><rect width="259.696" height="262.1" transform="matrix(0.91, 0.41, -0.41, 0.91, 1317.92, 0.33)" fill="#fff"/></g><rect width="234.518" height="180.564" transform="matrix(0.914, 0.407, -0.407, 0.914, 112.269, 17.256)" fill="rgba(172,136,55,0.05)"/><path d="M15.314-18.941v3.484H9.984V0H5.59V-15.457H.26v-3.484Zm5.226,5.252a7.786,7.786,0,0,1,2.795.481A6.13,6.13,0,0,1,25.5-11.83a6.207,6.207,0,0,1,1.4,2.177,7.856,7.856,0,0,1,.5,2.879,8,8,0,0,1-.5,2.905,6.251,6.251,0,0,1-1.4,2.2A6.16,6.16,0,0,1,23.335-.28,7.693,7.693,0,0,1,20.54.208,7.783,7.783,0,0,1,17.726-.28a6.281,6.281,0,0,1-2.184-1.391,6.16,6.16,0,0,1-1.417-2.2,8,8,0,0,1-.5-2.905,7.856,7.856,0,0,1,.5-2.879,6.117,6.117,0,0,1,1.417-2.177,6.251,6.251,0,0,1,2.184-1.378A7.877,7.877,0,0,1,20.54-13.689Zm0,10.907a2.289,2.289,0,0,0,2.047-.981,5.428,5.428,0,0,0,.656-2.983,5.394,5.394,0,0,0-.656-2.977A2.294,2.294,0,0,0,20.54-10.7a2.351,2.351,0,0,0-2.093.975,5.351,5.351,0,0,0-.663,2.977,5.385,5.385,0,0,0,.663,2.983A2.345,2.345,0,0,0,20.54-2.782ZM29.614,0V-13.481h2.5a1.112,1.112,0,0,1,.631.169.9.9,0,0,1,.357.507l.234.78a9.791,9.791,0,0,1,.806-.676,4.72,4.72,0,0,1,.89-.527,5.286,5.286,0,0,1,1.027-.338,5.511,5.511,0,0,1,1.2-.123,4.72,4.72,0,0,1,1.956.383,4.06,4.06,0,0,1,1.437,1.066,4.6,4.6,0,0,1,.884,1.625,6.738,6.738,0,0,1,.3,2.048V0H37.8V-8.567a2.357,2.357,0,0,0-.455-1.541,1.634,1.634,0,0,0-1.339-.552,2.8,2.8,0,0,0-1.248.286,4.853,4.853,0,0,0-1.118.767V0ZM49.686,3.5a1.442,1.442,0,0,1-.442.592,1.438,1.438,0,0,1-.832.188H45.4L48-1.183l-5.382-12.3h3.562a1.137,1.137,0,0,1,.728.208,1.116,1.116,0,0,1,.364.494l2.21,5.811a12.805,12.805,0,0,1,.507,1.612q.13-.416.286-.819t.3-.819l2-5.785a.986.986,0,0,1,.41-.5,1.17,1.17,0,0,1,.657-.2h3.25ZM67.86,0A1.888,1.888,0,0,1,67-.156a1.192,1.192,0,0,1-.487-.65l-.286-.741q-.507.429-.975.754a6.18,6.18,0,0,1-.968.552A4.783,4.783,0,0,1,63.213.1a6.56,6.56,0,0,1-1.255.111,5.5,5.5,0,0,1-1.677-.241A3.5,3.5,0,0,1,59-.741,3.115,3.115,0,0,1,58.188-1.9,4.2,4.2,0,0,1,57.9-3.51a3.367,3.367,0,0,1,.364-1.469,3.624,3.624,0,0,1,1.261-1.372,8.014,8.014,0,0,1,2.418-1.034,16.224,16.224,0,0,1,3.835-.468v-.572a2.472,2.472,0,0,0-.487-1.71,1.793,1.793,0,0,0-1.385-.526,3.673,3.673,0,0,0-1.17.156,5.26,5.26,0,0,0-.812.351q-.357.2-.7.351a1.91,1.91,0,0,1-.806.156,1.218,1.218,0,0,1-.708-.2,1.5,1.5,0,0,1-.461-.5l-.728-1.261a8.2,8.2,0,0,1,2.71-1.606,9.5,9.5,0,0,1,3.192-.526,5.837,5.837,0,0,1,2.2.4,4.742,4.742,0,0,1,1.664,1.1,4.828,4.828,0,0,1,1.047,1.684,6.05,6.05,0,0,1,.364,2.132V0ZM63.232-2.457A3.2,3.2,0,0,0,64.6-2.73a4.158,4.158,0,0,0,1.183-.884V-5.486a13.379,13.379,0,0,0-1.989.208,4.831,4.831,0,0,0-1.235.39,1.5,1.5,0,0,0-.631.533,1.261,1.261,0,0,0-.175.65,1.13,1.13,0,0,0,.377.968A1.839,1.839,0,0,0,63.232-2.457Z" transform="matrix(0.914, 0.407, -0.407, 0.914, 95.754, 253.886)" fill="#31270f"/></g><g transform="matrix(0.914, 0.407, -0.407, 0.914, 112.968, 20.825)"><path d="M1.154,39.864l.093-.419C7.946,16.234,29.715,0,54.183,0H178.334c24.467,0,46.237,16.234,52.935,39.446l.14.419A30.268,30.268,0,0,1,202.29,78.287a30.682,30.682,0,0,1-16.653-4.977c-2.233,22.467-8.792,41.585-19.3,55.959-12.559,17.164-30.328,26.607-50,26.607s-37.445-9.443-50-26.607c-10.513-14.373-17.071-33.492-19.3-55.959a30.489,30.489,0,0,1-16.653,5.024A30.318,30.318,0,0,1,1.154,39.864ZM208.569,70.239a23,23,0,0,0,15.862-28.421l-.093-.372c-5.814-20.141-24.747-34.236-46-34.236h-26.1c12.373,11.164,22.235,27.817,27.817,47.214A23.072,23.072,0,0,0,208.569,70.239Zm-92.288,78.473c34.934,0,59.215-32.236,62.564-81.357a30.972,30.972,0,0,1-5.768-10.885c-6.187-21.63-18-39.492-32.515-49.214H91.954C77.441,16.932,65.626,34.794,59.439,56.471a30.282,30.282,0,0,1-5.768,10.885C57.067,116.476,81.348,148.712,116.282,148.712ZM23.994,70.239a22.822,22.822,0,0,0,6.326.884,23.179,23.179,0,0,0,22.188-16.7c5.535-19.4,15.443-36.05,27.817-47.214h-26.1c-21.258,0-40.19,14.094-46,34.236l-.093.372A22.908,22.908,0,0,0,23.994,70.239Z" transform="translate(0 0)"/><path d="M11.908,0A11.862,11.862,0,1,1,0,11.862,11.891,11.891,0,0,1,11.908,0ZM16.7,11.862a2.884,2.884,0,1,0-2.884-2.884A2.869,2.869,0,0,0,16.7,11.862Z" transform="translate(77.069 50.656)" fill="#b1832d"/><path d="M0,11.862A11.908,11.908,0,1,1,11.908,23.723,11.891,11.891,0,0,1,0,11.862Zm16.653,0a2.884,2.884,0,1,0-2.884-2.884A2.9,2.9,0,0,0,16.653,11.862Z" transform="translate(131.678 50.656)" fill="#90c9ed"/><path d="M.831,28.627A2.147,2.147,0,0,1,3.855,29a10.174,10.174,0,0,0,7.954,4.279c5.442,0,10-5.07,11.164-11.908a5.467,5.467,0,0,1-.512-.233c-4.884-2.651-14-8.559-14-15.4,0-9.35,7.582-4.466,16.978-4.466S42.417-3.609,42.417,5.741c0,6.838-9.117,12.7-14,15.4a4.534,4.534,0,0,1-.512.233c1.163,6.791,5.721,11.908,11.164,11.908A10.243,10.243,0,0,0,47.022,29a2.154,2.154,0,0,1,3.4,2.651A14.411,14.411,0,0,1,39.068,37.6c-5.815,0-10.885-3.907-13.629-9.722C22.694,33.7,17.624,37.6,11.809,37.6A14.279,14.279,0,0,1,.459,31.65,2.152,2.152,0,0,1,.831,28.627Z" transform="translate(90.797 89.431)"/></g></g><g transform="translate(564.159 0.333)"><g transform="translate(0 0)"><g transform="matrix(1, 0, 0, 1, -564.16, -0.33)" filter="url(#c)"><rect width="259.696" height="262.1" transform="matrix(0.91, 0.41, -0.41, 0.91, 670.76, 0.33)" fill="#fff"/></g><rect width="234.518" height="180.564" transform="matrix(0.914, 0.407, -0.407, 0.914, 112.269, 17.256)" fill="rgba(172,136,55,0.05)"/><path d="M5.954-3.51h7.02V0H1.56V-18.941H5.954Zm12.87-9.971v8.554a2.352,2.352,0,0,0,.455,1.547,1.643,1.643,0,0,0,1.339.546,2.872,2.872,0,0,0,1.242-.273,4.631,4.631,0,0,0,1.125-.767v-9.607h4.03V0h-2.5a.948.948,0,0,1-.988-.676l-.247-.78a7.822,7.822,0,0,1-.806.683,4.933,4.933,0,0,1-.891.52,5.32,5.32,0,0,1-1.02.338,5.422,5.422,0,0,1-1.2.124,4.72,4.72,0,0,1-1.957-.384,4.025,4.025,0,0,1-1.436-1.073,4.678,4.678,0,0,1-.884-1.625,6.721,6.721,0,0,1-.3-2.054v-8.554Zm21.034,3.2a2.228,2.228,0,0,1-.351.351.775.775,0,0,1-.481.13,1.035,1.035,0,0,1-.54-.143l-.54-.319a4.092,4.092,0,0,0-.7-.318,3.022,3.022,0,0,0-1-.143,2.8,2.8,0,0,0-1.28.273,2.371,2.371,0,0,0-.891.78,3.565,3.565,0,0,0-.52,1.241,7.416,7.416,0,0,0-.169,1.657A5.051,5.051,0,0,0,34.132-3.8a2.4,2.4,0,0,0,2.061,1.04A2.88,2.88,0,0,0,37.3-2.931a3.369,3.369,0,0,0,.7-.39l.526-.4a.973.973,0,0,1,.6-.182.833.833,0,0,1,.728.351l1.17,1.443A6.366,6.366,0,0,1,39.715-.942a6.586,6.586,0,0,1-1.41.7,7.28,7.28,0,0,1-1.45.351,10.673,10.673,0,0,1-1.417.1,6.08,6.08,0,0,1-2.36-.468A5.781,5.781,0,0,1,31.1-1.618,6.506,6.506,0,0,1,29.75-3.809a8.206,8.206,0,0,1-.5-2.964A8.326,8.326,0,0,1,29.685-9.5a6.183,6.183,0,0,1,1.287-2.2,5.984,5.984,0,0,1,2.106-1.462,7.38,7.38,0,0,1,2.906-.533,7.083,7.083,0,0,1,2.782.507A6.675,6.675,0,0,1,40.924-11.7ZM48.282,3.5a1.442,1.442,0,0,1-.442.592,1.438,1.438,0,0,1-.832.188H43.992l2.6-5.46-5.382-12.3h3.562a1.137,1.137,0,0,1,.728.208,1.116,1.116,0,0,1,.364.494l2.21,5.811a12.805,12.805,0,0,1,.507,1.612q.13-.416.286-.819t.3-.819l2-5.785a.986.986,0,0,1,.41-.5,1.17,1.17,0,0,1,.657-.2h3.25Z" transform="matrix(0.914, 0.407, -0.407, 0.914, 95.754, 253.886)" fill="#31270f"/></g><g transform="matrix(0.914, 0.407, -0.407, 0.914, 127.727, 24.219)"><path d="M21.106,25.726C33.279,11.037,52.391,2.313,62.535,3.409a11.534,11.534,0,0,1,5.032,1.785,8.06,8.06,0,0,1,1.1.893C80.836.974,93.415,0,101.409,0h.041c7.994,0,20.573,1.014,32.746,6.087a8.058,8.058,0,0,1,1.1-.893,10.593,10.593,0,0,1,5.032-1.785c10.185-1.055,29.256,7.629,41.43,22.318,10.347,12.5,22.439,33.8,20.979,64.153-.852,17.367-12.985,27.755-23.981,28.688-.568.041-1.1.081-1.623.081a14.667,14.667,0,0,1-14.08-9.373,86.881,86.881,0,0,1-4.829,9.008v16.961c0,9.779-6.046,18.909-17,25.726-8.805,5.437-19.924,8.846-31.975,9.9a16.941,16.941,0,1,1-15.622,0c-12.052-1.055-23.21-4.464-31.975-9.9-10.956-6.776-17-15.906-17-25.726V118.284a86.881,86.881,0,0,1-4.829-9.008,14.667,14.667,0,0,1-14.08,9.373c-.527,0-1.055-.041-1.623-.081-11-.933-23.129-11.321-23.981-28.688C-1.374,59.527,10.718,38.224,21.106,25.726Zm51.412,2.759c-6.492,0-11.808,6.533-11.808,14.608S65.984,57.7,72.517,57.7c6.492,0,11.808-6.533,11.808-14.608S79.05,28.485,72.517,28.485Zm32.137-2.354c.365-6.614,1.1-15.866,1.867-21.912q-2.8-.122-5.113-.122h-.041q-2.313,0-5.113.122c.771,6.005,1.5,15.3,1.867,21.912.771,14.283-5.316,33.4-18.057,40.659-7.06,4.017-16.6,11.118-18.179,26.5-2.272,22.318-.73,28.526,3.165,42.2a61.973,61.973,0,0,0,20.776,10.55,47.684,47.684,0,0,0,15.46,1.745h.243a46.719,46.719,0,0,0,15.46-1.745,61.973,61.973,0,0,0,20.776-10.55c3.9-13.675,5.437-19.883,3.165-42.2-1.583-15.379-11.118-22.48-18.179-26.5C109.97,59.527,103.924,40.415,104.655,26.132ZM130.3,28.485c-6.492,0-11.808,6.533-11.808,14.608S123.767,57.7,130.3,57.7c6.492,0,11.808-6.533,11.808-14.608S136.792,28.485,130.3,28.485Zm33.152,59.69c.73,6.087,1.42,11.849,2.475,16.718,1.42,6.533,6.087,10.1,12.457,9.576,9.373-.812,19.518-10.307,20.208-24.793,1.38-29.013-10.144-49.383-20.086-61.353-11.565-13.959-28.283-20.938-36.56-20.938-.446,0-.893.041-1.3.081A6.621,6.621,0,0,0,137.482,8.6a3.588,3.588,0,0,0-1.7,2.516c-.325,2.151.974,5.316,3.449,8.44C158.014,42.931,161.058,68.049,163.452,88.175ZM104.7,165.637a3.287,3.287,0,1,0-3.733,3.246h.893A3.284,3.284,0,0,0,104.7,165.637ZM88.586,185.886a12.823,12.823,0,1,0,13.391-12.863c-.2,0-.406.041-.609.041a3.071,3.071,0,0,1-.609-.041A12.846,12.846,0,0,0,88.586,185.886Zm5.559-19.153a9.95,9.95,0,0,1-.081-1.1,7.385,7.385,0,1,1,14.77,0,9.951,9.951,0,0,1-.081,1.1C134.4,164.582,154.2,151.273,154.2,135.2V124.289c-9.414,12.66-21.871,21.547-36.033,25.645a50.836,50.836,0,0,1-16.677,1.907c-.893.041-1.785.081-2.678.081a50.073,50.073,0,0,1-14-1.948c-14.2-4.139-26.619-12.985-36.033-25.645v10.915C48.658,151.273,68.5,164.623,94.145,166.733ZM4.185,89.676c.69,14.486,10.834,23.981,20.208,24.793,6.371.528,11.037-3.043,12.457-9.576,1.055-4.829,1.745-10.591,2.475-16.718,2.435-20.167,5.437-45.244,24.144-68.657,2.516-3.124,3.814-6.29,3.449-8.44a3.47,3.47,0,0,0-1.7-2.516,6.777,6.777,0,0,0-3.165-1.136c-.406-.041-.852-.081-1.3-.081-8.278,0-25,6.979-36.56,20.938C14.329,40.293,2.765,60.663,4.185,89.676Z" transform="translate(0 0)" fill="#d39e4a"/><path d="M44.077,14.446c0,4.464-5.032,9.414-15.014,14.689a11.172,11.172,0,0,1-2.759.974v18.95h0a7.877,7.877,0,0,0,.528,2.759c.162.446,1.461,1.217,3.287,1.1,5.032-.365,9.657-3.368,12.66-5.356a17.366,17.366,0,0,1,3-1.745,2.059,2.059,0,0,1,2.638,1.217A2.094,2.094,0,0,1,47.2,49.667a20.519,20.519,0,0,0-2.151,1.339c-3.206,2.069-8.521,5.559-14.608,6.046-.243,0-.487.041-.73.041a7.86,7.86,0,0,1-5.437-1.948,7.933,7.933,0,0,1-5.437,1.948,4.408,4.408,0,0,1-.73-.041C12.021,56.606,6.665,53.116,3.5,51.006a20.517,20.517,0,0,0-2.151-1.339,2.054,2.054,0,0,1,1.42-3.855,17.369,17.369,0,0,1,3,1.745c3.043,1.988,7.629,4.991,12.66,5.356,1.826.122,3.124-.649,3.287-1.1a8.118,8.118,0,0,0,.528-2.759V30.109a11.786,11.786,0,0,1-2.759-.974C9.546,23.86,4.473,18.909,4.473,14.446,4.473,6.492,13.36,0,24.275,0S44.077,6.452,44.077,14.446ZM24.275,4.1c-8.521,0-15.7,4.707-15.7,10.307,0,2.069,3.368,6.046,12.822,11.037a6.047,6.047,0,0,0,5.762,0c9.455-4.991,12.822-9.008,12.822-11.037C39.979,8.846,32.8,4.1,24.275,4.1Z" transform="translate(77.133 73.892)"/><path d="M7.3,14.608a7.3,7.3,0,1,1,7.3-7.3A7.325,7.325,0,0,1,7.3,14.608ZM9.617,3.449A2.313,2.313,0,1,0,11.93,5.762,2.312,2.312,0,0,0,9.617,3.449Z" transform="translate(121.21 39.644)"/><path d="M7.3,14.608a7.3,7.3,0,1,1,7.3-7.3A7.325,7.325,0,0,1,7.3,14.608ZM9.657,3.449A2.313,2.313,0,1,0,11.97,5.762,2.338,2.338,0,0,0,9.657,3.449Z" transform="translate(66.999 39.644)"/></g></g><g transform="translate(241.036 0.333)"><g transform="translate(0 0)"><g transform="matrix(1, 0, 0, 1, -241.04, -0.33)" filter="url(#e)"><rect width="259.696" height="262.1" transform="matrix(0.91, 0.41, -0.41, 0.91, 347.64, 0.33)" fill="#fff"/></g><rect width="234.518" height="180.564" transform="matrix(0.914, 0.407, -0.407, 0.914, 112.269, 17.256)" fill="rgba(172,136,55,0.05)"/><path d="M11.245-8.658q.26.494.5,1.027t.461,1.092q.221-.572.468-1.111T13.182-8.7l4.862-9.568a1.589,1.589,0,0,1,.266-.384.873.873,0,0,1,.306-.2A1.281,1.281,0,0,1,19-18.928q.214-.013.5-.013h3.354V0H18.98V-10.894q0-.793.078-1.716L14.04-2.873a1.653,1.653,0,0,1-.631.689,1.744,1.744,0,0,1-.9.234h-.6a1.744,1.744,0,0,1-.9-.234,1.653,1.653,0,0,1-.63-.689L5.33-12.623q.052.455.078.9t.026.825V0H1.56V-18.941H4.914q.286,0,.5.013a1.281,1.281,0,0,1,.384.078.873.873,0,0,1,.305.2,1.589,1.589,0,0,1,.266.384ZM35.282,0a1.888,1.888,0,0,1-.864-.156,1.192,1.192,0,0,1-.487-.65l-.286-.741q-.507.429-.975.754a6.179,6.179,0,0,1-.968.552A4.783,4.783,0,0,1,30.634.1,6.56,6.56,0,0,1,29.38.208,5.5,5.5,0,0,1,27.7-.032a3.5,3.5,0,0,1-1.281-.708A3.115,3.115,0,0,1,25.61-1.9a4.2,4.2,0,0,1-.286-1.606,3.367,3.367,0,0,1,.364-1.469,3.624,3.624,0,0,1,1.261-1.372,8.014,8.014,0,0,1,2.418-1.034A16.224,16.224,0,0,1,33.2-7.852v-.572a2.472,2.472,0,0,0-.487-1.71,1.793,1.793,0,0,0-1.385-.526,3.673,3.673,0,0,0-1.17.156,5.26,5.26,0,0,0-.812.351q-.357.2-.7.351a1.91,1.91,0,0,1-.806.156,1.218,1.218,0,0,1-.708-.2,1.5,1.5,0,0,1-.462-.5l-.728-1.261a8.2,8.2,0,0,1,2.711-1.606,9.5,9.5,0,0,1,3.191-.526,5.837,5.837,0,0,1,2.2.4,4.742,4.742,0,0,1,1.664,1.1,4.828,4.828,0,0,1,1.047,1.684,6.05,6.05,0,0,1,.364,2.132V0ZM30.654-2.457a3.2,3.2,0,0,0,1.365-.273A4.158,4.158,0,0,0,33.2-3.614V-5.486a13.379,13.379,0,0,0-1.989.208,4.831,4.831,0,0,0-1.235.39,1.5,1.5,0,0,0-.631.533,1.261,1.261,0,0,0-.176.65,1.13,1.13,0,0,0,.377.968A1.839,1.839,0,0,0,30.654-2.457ZM39.988,0V-13.481H42.38a2.04,2.04,0,0,1,.5.052.878.878,0,0,1,.338.163.693.693,0,0,1,.208.292,2.638,2.638,0,0,1,.124.442l.221,1.261a6.606,6.606,0,0,1,1.664-1.807,3.381,3.381,0,0,1,2.015-.663,2.321,2.321,0,0,1,1.482.442l-.52,2.964a.579.579,0,0,1-.208.384.706.706,0,0,1-.416.11,2.759,2.759,0,0,1-.52-.058,4.031,4.031,0,0,0-.754-.058,2.768,2.768,0,0,0-2.5,1.69V0Zm15.47.208a4.752,4.752,0,0,1-1.7-.28,3.37,3.37,0,0,1-1.235-.793,3.38,3.38,0,0,1-.761-1.241,4.806,4.806,0,0,1-.26-1.625V-10.7H50.362a.763.763,0,0,1-.533-.2.76.76,0,0,1-.221-.591v-1.573l2.145-.416.793-3.289a.8.8,0,0,1,.884-.624h2.106v3.939h3.276V-10.7H55.536V-4a1.26,1.26,0,0,0,.228.774.769.769,0,0,0,.657.306,1.29,1.29,0,0,0,.37-.046,1.475,1.475,0,0,0,.26-.1q.11-.059.208-.1a.533.533,0,0,1,.228-.046.469.469,0,0,1,.292.084,1.046,1.046,0,0,1,.228.267L59.228-.962a5.562,5.562,0,0,1-1.755.878A6.974,6.974,0,0,1,55.458.208Zm9.828-13.689V0h-4.03V-13.481Zm.468-3.692a2.13,2.13,0,0,1-.195.9,2.378,2.378,0,0,1-.533.741,2.609,2.609,0,0,1-.786.507,2.441,2.441,0,0,1-.956.189,2.269,2.269,0,0,1-.923-.189,2.6,2.6,0,0,1-.76-.507,2.34,2.34,0,0,1-.52-.741,2.192,2.192,0,0,1-.188-.9,2.269,2.269,0,0,1,.188-.923,2.4,2.4,0,0,1,.52-.754,2.435,2.435,0,0,1,.76-.507,2.339,2.339,0,0,1,.923-.182,2.517,2.517,0,0,1,.956.182,2.454,2.454,0,0,1,.786.507,2.433,2.433,0,0,1,.533.754A2.2,2.2,0,0,1,65.754-17.173ZM68.536,0V-13.481h2.5a1.112,1.112,0,0,1,.631.169.9.9,0,0,1,.357.507l.234.78a9.791,9.791,0,0,1,.806-.676,4.72,4.72,0,0,1,.891-.527,5.285,5.285,0,0,1,1.027-.338,5.511,5.511,0,0,1,1.2-.123,4.72,4.72,0,0,1,1.956.383,4.06,4.06,0,0,1,1.437,1.066,4.6,4.6,0,0,1,.884,1.625,6.738,6.738,0,0,1,.3,2.048V0h-4.03V-8.567a2.357,2.357,0,0,0-.455-1.541,1.634,1.634,0,0,0-1.339-.552,2.8,2.8,0,0,0-1.248.286,4.853,4.853,0,0,0-1.118.767V0Z" transform="matrix(0.914, 0.407, -0.407, 0.914, 95.754, 253.886)" fill="#31270f"/></g><g transform="matrix(0.914, 0.407, -0.407, 0.914, 113.343, 22.258)"><path d="M16.039,0A16.13,16.13,0,1,1,0,16.314,16.161,16.161,0,0,1,16.039,0ZM26.1,11.627a4.457,4.457,0,1,0-4.457,4.457A4.462,4.462,0,0,0,26.1,11.627ZM16.774,29A12.684,12.684,0,0,0,22.2,27.757,20.516,20.516,0,0,1,5.929,8.732a12.615,12.615,0,0,0-2.252,7.444A12.945,12.945,0,0,0,16.774,29Z" transform="translate(136.801 52.845)" fill="#d29e4a"/><path d="M16.039,0A16.13,16.13,0,1,1,0,16.314,16.161,16.161,0,0,1,16.039,0ZM26.1,11.627a4.457,4.457,0,1,0-4.457,4.457A4.462,4.462,0,0,0,26.1,11.627ZM16.774,29A12.684,12.684,0,0,0,22.2,27.757,20.516,20.516,0,0,1,5.929,8.732a12.615,12.615,0,0,0-2.252,7.444A12.916,12.916,0,0,0,16.774,29Z" transform="translate(60.611 52.845)" fill="#b4871f"/><path d="M12.039,51.008C20.77,30.145,36.3,17.83,54.867,16.773c.46-.368.965-.689,1.47-1.057C71.043,5.422,91.308,0,114.882,0s43.839,5.422,58.59,15.716c.506.322.965.689,1.471,1.057,18.565,1.057,34.1,13.418,42.828,34.235,17.324,41.358,14.016,82.624,2.114,100.454-4.136,6.158-9.145,9.374-14.567,9.374-7.72,0-13.464-5.79-16.221-9.283-3.722-4.641-5.928-10.018-8.088-15.211-1.562-3.722-3.125-7.49-4.411-11.442-.827,1.1-1.654,2.206-2.481,3.263-16.727,21.047-37.773,32.627-59.234,32.627s-42.507-11.58-59.234-32.627c-.873-1.057-1.7-2.16-2.481-3.263-1.287,3.952-2.849,7.72-4.412,11.442-2.16,5.193-4.412,10.523-8.088,15.211-2.757,3.446-8.547,9.283-16.221,9.283h0c-5.377,0-10.431-3.217-14.521-9.374C-1.977,133.632-5.331,92.366,12.039,51.008ZM95.076,7.674c.965,23.85,10.707,39.566,19.806,39.566s18.841-15.762,19.806-39.566a134.114,134.114,0,0,0-39.612,0ZM186.753,134c1.976,4.779,4.044,9.742,7.215,13.74,3.492,4.411,7.628,6.939,11.35,6.939,4.044,0,7.307-3.584,9.328-6.571,11.167-16.819,13.234-56.752-2.665-94.663-3.171-7.582-11.672-23.574-28.353-28.813,9.6,10.523,14.659,23.988,14.659,39.474,0,17.508-6.25,37.038-17.095,54.087C182.433,123.614,184.639,128.853,186.753,134Zm-126.233-9.65c15.532,19.53,34.832,30.283,54.363,30.283s38.83-10.753,54.363-30.283c14.291-18.014,22.839-40.531,22.839-60.2,0-18.2-7.674-33.178-22.2-43.288-8-5.56-17.784-9.6-29-11.994-1.287,25.412-12.224,44.62-26.009,44.62S90.159,34.235,88.873,8.869c-11.213,2.39-21,6.433-29,11.994-14.521,10.11-22.2,25.09-22.2,43.288C37.681,83.819,46.228,106.336,60.519,124.349Zm-45.4,23.666c2.022,2.987,5.239,6.571,9.329,6.571,3.722,0,7.858-2.527,11.35-6.939,3.171-4,5.239-8.961,7.215-13.74a101.931,101.931,0,0,0,5.56-15.762C37.727,101.1,31.477,81.567,31.477,64.059c0-15.532,5.009-28.95,14.613-39.474C29.455,29.824,20.954,45.769,17.783,53.352,1.883,91.355,3.951,131.288,15.118,148.015Z" transform="translate(0 0)"/><path d="M1.374,34.327a1.865,1.865,0,0,1,2.3,1.333,8.58,8.58,0,0,0,8.685,6.433A10.784,10.784,0,0,0,23.707,31.57V22.379a4.673,4.673,0,0,1-1.287-.6C17.458,18.749,8.359,12.5,8.359,7.261,8.359.046,16.079,0,25.591,0S42.824.046,42.824,7.261c0,5.239-9.053,11.488-14.062,14.521a4.944,4.944,0,0,1-1.333.6V31.57A10.784,10.784,0,0,0,38.78,42.093a8.58,8.58,0,0,0,8.685-6.433,1.9,1.9,0,0,1,2.3-1.333,1.865,1.865,0,0,1,1.333,2.3,12.37,12.37,0,0,1-12.269,9.191c-6.893,0-11.029-3.4-13.234-7.353-2.16,3.906-6.342,7.353-13.235,7.353A12.246,12.246,0,0,1,.087,36.625,1.786,1.786,0,0,1,1.374,34.327Z" transform="translate(89.337 96.318)"/></g></g><g transform="translate(-83 0.333)"><g transform="translate(0)"><g transform="matrix(1, 0, 0, 1, 83, -0.33)" filter="url(#g)"><rect width="259.696" height="262.1" transform="matrix(0.91, 0.41, -0.41, 0.91, 23.61, 0.33)" fill="#fff"/></g><rect width="234.518" height="180.564" transform="matrix(0.914, 0.407, -0.407, 0.914, 112.269, 17.256)" fill="rgba(172,136,55,0.05)"/><path d="M.13-18.941H3.822a1.665,1.665,0,0,1,.956.26,1.191,1.191,0,0,1,.5.689l2.6,9.88q.13.481.26,1.027a9.254,9.254,0,0,1,.195,1.144q.13-.611.286-1.15t.3-1.021l3.068-9.88a1.362,1.362,0,0,1,.5-.657,1.488,1.488,0,0,1,.929-.292h1.3a1.633,1.633,0,0,1,.943.253,1.3,1.3,0,0,1,.513.7l3.042,9.88q.143.455.3.969t.273,1.1q.1-.572.215-1.092t.228-.975l2.6-9.88a1.236,1.236,0,0,1,.494-.663,1.539,1.539,0,0,1,.936-.286h3.458L21.866,0H17.888L14.326-11.739q-.091-.273-.189-.6t-.189-.689q-.091.364-.188.689t-.189.6L9.958,0H5.98Zm33.436,5.46V0h-4.03V-13.481Zm.468-3.692a2.13,2.13,0,0,1-.195.9,2.378,2.378,0,0,1-.533.741,2.609,2.609,0,0,1-.786.507,2.441,2.441,0,0,1-.955.189,2.269,2.269,0,0,1-.923-.189,2.6,2.6,0,0,1-.76-.507,2.34,2.34,0,0,1-.52-.741,2.192,2.192,0,0,1-.188-.9,2.269,2.269,0,0,1,.188-.923,2.4,2.4,0,0,1,.52-.754,2.435,2.435,0,0,1,.76-.507,2.339,2.339,0,0,1,.923-.182,2.517,2.517,0,0,1,.955.182,2.454,2.454,0,0,1,.786.507,2.433,2.433,0,0,1,.533.754A2.2,2.2,0,0,1,34.034-17.173Zm6.942-2.288V0h-4.03V-19.461Zm7.41,0V0h-4.03V-19.461ZM57.148,3.5a1.442,1.442,0,0,1-.442.592,1.438,1.438,0,0,1-.832.188H52.858l2.6-5.46-5.382-12.3h3.562a1.137,1.137,0,0,1,.728.208,1.116,1.116,0,0,1,.364.494l2.21,5.811a12.805,12.805,0,0,1,.507,1.612q.13-.416.286-.819t.3-.819l2-5.785a.986.986,0,0,1,.41-.5,1.17,1.17,0,0,1,.656-.2h3.25Z" transform="matrix(0.914, 0.407, -0.407, 0.914, 95.754, 253.886)" fill="#31270f"/></g><g transform="matrix(0.914, 0.407, -0.407, 0.914, 113.689, 17.745)"><path d="M24.016,13.347C35.064,2.53,51.823-2.576,66.863,1.277a14.518,14.518,0,0,1,4.781,2A27.4,27.4,0,0,1,82.6,11.908,97.824,97.824,0,0,1,149.493,12a27.568,27.568,0,0,1,11-8.681,14.518,14.518,0,0,1,4.781-2c15.041-3.853,31.8,1.253,42.847,12.07s25.068,25.114,23.954,40.48c-1.161,15.319-17.13,31.613-28.039,42.615-2.739,2.785-6.128,5.431-9.841,6.267-16.9,46.329-34.12,78.313-78.36,78.313-43.451,0-61.091-25.393-78.777-78.545-3.342-1.021-6.406-3.482-8.959-6.035C17.192,85.532,1.223,69.238.062,53.873-1.052,38.461,12.968,24.163,24.016,13.347ZM115.838,173.5c36.395,0,52.364-22.375,70.746-72.139-4.364-2.878-6.731-9.006-8.217-14.344Q169.8,56.449,161.192,25.834a18.342,18.342,0,0,1-2.414-.6,47.74,47.74,0,0,1-7.892-3.435,9.264,9.264,0,0,1-2.832-2.182,90.17,90.17,0,0,0-63.644-.279,8.462,8.462,0,0,1-3.064,2.46,44.133,44.133,0,0,1-7.892,3.435,11.486,11.486,0,0,1-2.414.6Q62.476,56.4,53.865,87.018c-1.578,5.663-4.085,12.162-8.959,14.762C61.432,151.265,77.122,173.5,115.838,173.5Z" transform="translate(0 0)" fill="#ac8837"/><path d="M1.149,24.371a1.929,1.929,0,0,1,2.507.975c1.81,4.224,5.06,6.824,8.5,6.824,5.014,0,9.191-5.338,9.841-12.209a8.035,8.035,0,0,1-3.853-2.182l-5.849-5.8A7.011,7.011,0,0,1,17.3,0H30.72a7.011,7.011,0,0,1,5.014,11.977l-5.849,5.8a8.484,8.484,0,0,1-3.853,2.182c.65,6.87,4.828,12.209,9.841,12.209,3.435,0,6.685-2.6,8.5-6.824A1.914,1.914,0,0,1,47.9,26.832c-2.414,5.617-7.01,9.145-12.023,9.145h-.325V47.071A11.026,11.026,0,0,1,24.5,58.027h-.975A11.026,11.026,0,0,1,12.476,47.071V35.977h-.325c-5.014,0-9.609-3.482-12.023-9.145A1.956,1.956,0,0,1,1.149,24.371Zm15.18,22.7a7.241,7.241,0,0,0,7.242,7.2H24.5a7.212,7.212,0,0,0,7.242-7.2V35.141a13.777,13.777,0,0,1-5.8-4.735V45.168a1.9,1.9,0,0,1-3.807,0V30.406a14.134,14.134,0,0,1-5.8,4.735Z" transform="translate(92.035 112.41)"/><path d="M0,12.627A12.7,12.7,0,1,1,12.72,25.253,12.65,12.65,0,0,1,0,12.627Zm17.083,0a3.2,3.2,0,1,0-3.2-3.2A3.21,3.21,0,0,0,17.083,12.627Z" transform="translate(133.849 77.78)"/><path d="M12.673,0A12.627,12.627,0,1,1,0,12.627,12.65,12.65,0,0,1,12.673,0Zm4.364,12.627a3.2,3.2,0,1,0-3.2-3.2A3.21,3.21,0,0,0,17.037,12.627Z" transform="translate(72.944 77.78)"/></g></g><g transform="translate(-82.088 402.28)"><g transform="translate(0 0)"><g transform="matrix(1, 0, 0, 1, 82.09, -402.28)" filter="url(#i)"><rect width="259.696" height="262.1" transform="matrix(0.91, 0.41, -0.41, 0.91, 24.52, 402.28)" fill="#fff"/></g><rect width="234.518" height="180.564" transform="matrix(0.914, 0.407, -0.407, 0.914, 112.269, 17.256)" fill="rgba(172,136,55,0.05)"/><path d="M5.954-7.007V0H1.56V-18.941H7.722a12.645,12.645,0,0,1,3.5.423,6.578,6.578,0,0,1,2.366,1.177,4.453,4.453,0,0,1,1.332,1.781,5.9,5.9,0,0,1,.416,2.236,6,6,0,0,1-.247,1.742,5.275,5.275,0,0,1-.734,1.514,5.684,5.684,0,0,1-1.2,1.241,6.351,6.351,0,0,1-1.632.9,4.13,4.13,0,0,1,.826.546,3.249,3.249,0,0,1,.669.793L17.056,0H13.078a1.688,1.688,0,0,1-1.586-.832l-3.146-5.5a1.324,1.324,0,0,0-.488-.52,1.631,1.631,0,0,0-.786-.156Zm0-3.029H7.722a4.521,4.521,0,0,0,1.528-.227,2.76,2.76,0,0,0,1.033-.63,2.4,2.4,0,0,0,.585-.943A3.617,3.617,0,0,0,11.05-13a2.44,2.44,0,0,0-.812-1.95,3.782,3.782,0,0,0-2.516-.7H5.954Zm18.9-3.653a7.786,7.786,0,0,1,2.8.481,6.13,6.13,0,0,1,2.165,1.378,6.207,6.207,0,0,1,1.4,2.177,7.856,7.856,0,0,1,.5,2.879,8,8,0,0,1-.5,2.905,6.251,6.251,0,0,1-1.4,2.2A6.16,6.16,0,0,1,27.651-.28a7.693,7.693,0,0,1-2.8.488A7.783,7.783,0,0,1,22.042-.28a6.281,6.281,0,0,1-2.184-1.391,6.16,6.16,0,0,1-1.417-2.2,8,8,0,0,1-.5-2.905,7.856,7.856,0,0,1,.5-2.879,6.117,6.117,0,0,1,1.417-2.177,6.251,6.251,0,0,1,2.184-1.378A7.877,7.877,0,0,1,24.856-13.689Zm0,10.907A2.289,2.289,0,0,0,26.9-3.763a5.428,5.428,0,0,0,.657-2.983A5.394,5.394,0,0,0,26.9-9.724a2.294,2.294,0,0,0-2.047-.975,2.351,2.351,0,0,0-2.093.975A5.351,5.351,0,0,0,22.1-6.747a5.385,5.385,0,0,0,.663,2.983A2.345,2.345,0,0,0,24.856-2.782ZM42.172-10.53a1.042,1.042,0,0,1-.331.351.87.87,0,0,1-.449.1,1.433,1.433,0,0,1-.572-.123l-.618-.267a6.728,6.728,0,0,0-.748-.267,3.337,3.337,0,0,0-.949-.123,2.007,2.007,0,0,0-1.177.292.943.943,0,0,0-.41.813.814.814,0,0,0,.267.624,2.445,2.445,0,0,0,.708.436,9.772,9.772,0,0,0,1,.358q.559.169,1.144.377a10.187,10.187,0,0,1,1.144.487,4.279,4.279,0,0,1,1,.689,3.076,3.076,0,0,1,.708.995,3.368,3.368,0,0,1,.267,1.4A4.617,4.617,0,0,1,42.8-2.535,3.92,3.92,0,0,1,41.71-1.079a5.133,5.133,0,0,1-1.781.949,8.022,8.022,0,0,1-2.437.338,7.417,7.417,0,0,1-1.378-.13,9.545,9.545,0,0,1-1.333-.351A7.259,7.259,0,0,1,33.592-.8a5.159,5.159,0,0,1-.936-.657l.936-1.482a1.347,1.347,0,0,1,.4-.409,1.119,1.119,0,0,1,.611-.15,1.271,1.271,0,0,1,.631.156l.6.338a5.039,5.039,0,0,0,.76.338,3.3,3.3,0,0,0,1.1.156,2.79,2.79,0,0,0,.793-.1,1.4,1.4,0,0,0,.52-.266A1.064,1.064,0,0,0,39.3-3.25a1.06,1.06,0,0,0,.091-.429.876.876,0,0,0-.273-.663A2.378,2.378,0,0,0,38.4-4.79a8.717,8.717,0,0,0-1.007-.351q-.566-.162-1.151-.371a9.241,9.241,0,0,1-1.151-.5,3.958,3.958,0,0,1-1.007-.741,3.443,3.443,0,0,1-.715-1.1A4.058,4.058,0,0,1,33.1-9.425a4.1,4.1,0,0,1,.332-1.631,3.788,3.788,0,0,1,.994-1.359,4.883,4.883,0,0,1,1.664-.929,7.194,7.194,0,0,1,2.34-.344,7.523,7.523,0,0,1,1.411.13,7.208,7.208,0,0,1,1.28.364,6.133,6.133,0,0,1,1.092.552,5.244,5.244,0,0,1,.871.7Zm12.922.247a2.228,2.228,0,0,1-.351.351.775.775,0,0,1-.481.13,1.035,1.035,0,0,1-.54-.143l-.539-.319a4.092,4.092,0,0,0-.7-.318,3.022,3.022,0,0,0-1-.143,2.8,2.8,0,0,0-1.28.273,2.371,2.371,0,0,0-.89.78,3.564,3.564,0,0,0-.52,1.241,7.416,7.416,0,0,0-.169,1.657A5.051,5.051,0,0,0,49.368-3.8a2.4,2.4,0,0,0,2.061,1.04,2.88,2.88,0,0,0,1.111-.175,3.368,3.368,0,0,0,.7-.39l.527-.4a.973.973,0,0,1,.6-.182.833.833,0,0,1,.728.351l1.17,1.443A6.366,6.366,0,0,1,54.951-.942a6.586,6.586,0,0,1-1.41.7,7.28,7.28,0,0,1-1.449.351,10.673,10.673,0,0,1-1.417.1A6.08,6.08,0,0,1,48.315-.26a5.781,5.781,0,0,1-1.976-1.359,6.506,6.506,0,0,1-1.352-2.191,8.206,8.206,0,0,1-.5-2.964A8.326,8.326,0,0,1,44.922-9.5a6.183,6.183,0,0,1,1.287-2.2,5.984,5.984,0,0,1,2.106-1.462,7.38,7.38,0,0,1,2.905-.533A7.083,7.083,0,0,1,54-13.182,6.675,6.675,0,0,1,56.16-11.7Zm8.918-3.406a7.786,7.786,0,0,1,2.795.481,6.13,6.13,0,0,1,2.164,1.378,6.207,6.207,0,0,1,1.4,2.177,7.856,7.856,0,0,1,.5,2.879,8,8,0,0,1-.5,2.905,6.251,6.251,0,0,1-1.4,2.2A6.16,6.16,0,0,1,66.807-.28a7.693,7.693,0,0,1-2.795.488A7.783,7.783,0,0,1,61.2-.28a6.281,6.281,0,0,1-2.184-1.391,6.16,6.16,0,0,1-1.417-2.2,8,8,0,0,1-.5-2.905,7.856,7.856,0,0,1,.5-2.879,6.117,6.117,0,0,1,1.417-2.177A6.251,6.251,0,0,1,61.2-13.208,7.877,7.877,0,0,1,64.012-13.689Zm0,10.907a2.289,2.289,0,0,0,2.048-.981,5.428,5.428,0,0,0,.657-2.983,5.394,5.394,0,0,0-.657-2.977,2.294,2.294,0,0,0-2.048-.975,2.351,2.351,0,0,0-2.093.975,5.351,5.351,0,0,0-.663,2.977,5.385,5.385,0,0,0,.663,2.983A2.345,2.345,0,0,0,64.012-2.782ZM78.858-13.689a6.941,6.941,0,0,1,2.451.416,5.327,5.327,0,0,1,1.911,1.209,5.518,5.518,0,0,1,1.248,1.943,7.132,7.132,0,0,1,.449,2.607,5.689,5.689,0,0,1-.039.741,1.173,1.173,0,0,1-.143.455.544.544,0,0,1-.28.234,1.309,1.309,0,0,1-.449.065H76.232a3.8,3.8,0,0,0,1.027,2.451,3.056,3.056,0,0,0,2.145.76,3.84,3.84,0,0,0,1.209-.169,6.1,6.1,0,0,0,.9-.377q.4-.208.728-.377a1.512,1.512,0,0,1,.7-.169.833.833,0,0,1,.728.351l1.17,1.443A5.99,5.99,0,0,1,83.493-.942a6.992,6.992,0,0,1-1.482.7A8.033,8.033,0,0,1,80.49.111a11.414,11.414,0,0,1-1.45.1,7.569,7.569,0,0,1-2.659-.462,6.109,6.109,0,0,1-2.171-1.371,6.471,6.471,0,0,1-1.469-2.262A8.452,8.452,0,0,1,72.2-7.033a7.12,7.12,0,0,1,.461-2.561,6.308,6.308,0,0,1,1.326-2.119,6.313,6.313,0,0,1,2.093-1.443A6.908,6.908,0,0,1,78.858-13.689Zm.078,2.782a2.428,2.428,0,0,0-1.807.656,3.421,3.421,0,0,0-.858,1.891H81.3a3.557,3.557,0,0,0-.124-.936,2.269,2.269,0,0,0-.4-.813,2.05,2.05,0,0,0-.734-.579A2.512,2.512,0,0,0,78.936-10.907Z" transform="matrix(0.914, 0.407, -0.407, 0.914, 95.754, 253.886)" fill="#31270f"/></g><g transform="matrix(0.914, 0.407, -0.407, 0.914, 114.583, 17.745)"><path d="M25.095,59.11C38.8,40.964,48.647,31.3,55.749,28.409a75.021,75.021,0,0,1,119.777,2.933,34.482,34.482,0,0,1,8.981,6.552c5.865,4.857,12.418,11.868,19.474,21.215,20.62,27.264,30.517,54.482,22.132,60.759-6.736,5.04-23.232-4.949-40.14-23.186a74.962,74.962,0,0,1-142.78.275c-17.321,19.108-33.4,28-40.185,22.911C-5.423,113.592,4.475,86.374,25.095,59.11Zm89.444,83.9a68.924,68.924,0,0,0,66.762-51.6c-.733-.825-1.466-1.7-2.154-2.566-14.709,9.852-40.964,10.127-52.282-3.712-14.709-18.008-1.42-39.59,13.38-50.679a33.354,33.354,0,0,1,25.019-6.323,69.074,69.074,0,0,0-101.724.229A7.539,7.539,0,0,1,64.547,29c8.431,6.232-1.512,42.522-9.164,52.878-2.566,3.482-5.132,6.736-7.652,9.76A69.131,69.131,0,0,0,114.538,143.009Zm38.307-75.88a10.4,10.4,0,1,0-10.4,10.356A10.384,10.384,0,0,0,152.845,67.129Z" transform="translate(0 0)" fill="#674d24"/><ellipse cx="2.978" cy="2.933" rx="2.978" ry="2.933" transform="translate(142.443 60.759)"/><path d="M10.4,0A10.356,10.356,0,1,1,0,10.356,10.384,10.384,0,0,1,10.4,0Zm2.337,9.852A2.933,2.933,0,1,0,9.76,6.919,3.024,3.024,0,0,0,12.738,9.852Z" transform="translate(76.231 56.773)"/><path d="M4.895,21.1a9.253,9.253,0,0,0,15.442-6.461V14.6c-3.207-1.879-7.927-5.315-7.927-9.256,0-6,4.674-5.315,10.722-5.315,6,0,11.089-.687,11.089,5.315,0,3.941-4.72,7.377-7.927,9.256h0a9.2,9.2,0,0,0,9.21,8.844,9.524,9.524,0,0,0,6.232-2.383,3.02,3.02,0,0,1,4.216.183,2.963,2.963,0,0,1-.183,4.17A15.019,15.019,0,0,1,35.549,29.35a15.188,15.188,0,0,1-12.189-6.094A15.228,15.228,0,0,1,.954,25.409a2.962,2.962,0,0,1-.183-4.17A2.9,2.9,0,0,1,4.895,21.1Z" transform="translate(91.269 97.438)"/></g></g><g transform="translate(889.108 402.28)"><g transform="translate(0 0)"><g transform="matrix(1, 0, 0, 1, -889.11, -402.28)" filter="url(#k)"><rect width="259.696" height="262.1" transform="matrix(0.91, 0.41, -0.41, 0.91, 995.71, 402.28)" fill="#fff"/></g><rect width="234.518" height="180.564" transform="matrix(0.914, 0.407, -0.407, 0.914, 112.269, 17.256)" fill="rgba(172,136,55,0.05)"/><path d="M18.1,0h-4.42V-8.008H5.98V0H1.56V-18.941H5.98v7.917h7.7v-7.917H18.1Zm6.89-13.481v8.554a2.352,2.352,0,0,0,.455,1.547,1.643,1.643,0,0,0,1.339.546,2.872,2.872,0,0,0,1.242-.273,4.631,4.631,0,0,0,1.125-.767v-9.607h4.03V0h-2.5a.948.948,0,0,1-.988-.676l-.247-.78a7.822,7.822,0,0,1-.806.683,4.933,4.933,0,0,1-.89.52,5.32,5.32,0,0,1-1.021.338,5.422,5.422,0,0,1-1.2.124,4.72,4.72,0,0,1-1.956-.384,4.025,4.025,0,0,1-1.437-1.073,4.678,4.678,0,0,1-.884-1.625,6.721,6.721,0,0,1-.3-2.054v-8.554Zm21.034,3.2a2.229,2.229,0,0,1-.351.351.775.775,0,0,1-.481.13,1.035,1.035,0,0,1-.54-.143l-.539-.319a4.092,4.092,0,0,0-.7-.318,3.022,3.022,0,0,0-1-.143,2.8,2.8,0,0,0-1.28.273,2.371,2.371,0,0,0-.89.78,3.564,3.564,0,0,0-.52,1.241,7.416,7.416,0,0,0-.169,1.657A5.051,5.051,0,0,0,40.293-3.8a2.4,2.4,0,0,0,2.061,1.04,2.88,2.88,0,0,0,1.111-.175,3.368,3.368,0,0,0,.7-.39l.527-.4a.973.973,0,0,1,.6-.182.833.833,0,0,1,.728.351l1.17,1.443A6.366,6.366,0,0,1,45.877-.942a6.586,6.586,0,0,1-1.41.7,7.28,7.28,0,0,1-1.45.351,10.673,10.673,0,0,1-1.417.1A6.08,6.08,0,0,1,39.241-.26a5.781,5.781,0,0,1-1.976-1.359,6.506,6.506,0,0,1-1.352-2.191,8.206,8.206,0,0,1-.5-2.964A8.326,8.326,0,0,1,35.847-9.5a6.183,6.183,0,0,1,1.287-2.2,5.984,5.984,0,0,1,2.106-1.462,7.38,7.38,0,0,1,2.905-.533,7.083,7.083,0,0,1,2.782.507A6.675,6.675,0,0,1,47.086-11.7Zm6.942-9.178V-8.554h.6a1.29,1.29,0,0,0,.578-.1,1.084,1.084,0,0,0,.384-.377l2.548-3.8a1.389,1.389,0,0,1,.527-.494,1.7,1.7,0,0,1,.774-.156h3.692l-3.484,4.8a3.78,3.78,0,0,1-.54.6,4.485,4.485,0,0,1-.631.468,3.96,3.96,0,0,1,1.014,1.17L62.218,0h-3.64a1.9,1.9,0,0,1-.786-.149,1.17,1.17,0,0,1-.54-.527L54.7-5.447a1,1,0,0,0-.377-.423,1.358,1.358,0,0,0-.585-.1h-.78V0h-4.03V-19.461Z" transform="matrix(0.914, 0.407, -0.407, 0.914, 95.754, 253.886)" fill="#31270f"/></g><g transform="matrix(0.914, 0.407, -0.407, 0.914, 113.539, 20.881)"><path d="M2.322,0A39.523,39.523,0,0,1,29.406,22.214l38.783,85.624a39.844,39.844,0,0,1-19.71,52.53A39.631,39.631,0,0,1,0,147.349C14.111,126.637,22.942,97.14,22.942,64.366,22.988,33.412,15.067,12.882,2.322,0Z" transform="translate(155.908 0)" fill="#b48720"/><path d="M3.507,107.837,42.29,22.168A39.574,39.574,0,0,1,69.374,0C56.583,12.882,48.708,33.412,48.708,64.366c0,32.775,8.831,62.272,22.942,82.983a39.662,39.662,0,0,1-48.479,13.019A39.864,39.864,0,0,1,3.507,107.837Z" transform="translate(0 0)" fill="#ebcb82"/><path d="M0,15.2a15.2,15.2,0,1,1,15.2,15.2A15.173,15.173,0,0,1,0,15.2Zm19.073,2.367A5.872,5.872,0,1,0,13.2,11.7,5.886,5.886,0,0,0,19.073,17.571Z" transform="translate(128.141 39.557)" fill="#b4871f"/><path d="M15.2,0A15.2,15.2,0,1,1,0,15.2,15.231,15.231,0,0,1,15.2,0Zm3.869,17.571A5.872,5.872,0,1,0,13.2,11.7,5.886,5.886,0,0,0,19.073,17.571Z" transform="translate(69.101 39.557)" fill="#b4871f"/><path d="M1.268,31.318A3.084,3.084,0,0,1,5.638,32a7.362,7.362,0,0,0,5.872,3.369c4.188,0,7.647-4.233,8.239-9.787a1.9,1.9,0,0,1-.455-.182C13.468,22.76,2.68,17.025,2.68,10.333,2.68,1.184,11.738,0,22.982,0c11.2,0,20.3,1.138,20.3,10.333,0,6.691-10.743,12.427-16.615,15.067-.137.046-.319.137-.455.182.592,5.508,4.051,9.787,8.239,9.787A7.362,7.362,0,0,0,40.325,32a3.128,3.128,0,1,1,5.053,3.687,13.669,13.669,0,0,1-10.925,5.963c-4.643,0-8.785-2.64-11.471-6.783-2.686,4.142-6.828,6.783-11.471,6.783A13.6,13.6,0,0,1,.586,35.688,3.172,3.172,0,0,1,1.268,31.318Z" transform="translate(90.775 88.491)" fill="#b4871f"/></g></g><g transform="translate(565.072 402.28)"><g transform="translate(0 0)"><g transform="matrix(1, 0, 0, 1, -565.07, -402.28)" filter="url(#m)"><rect width="259.696" height="262.1" transform="matrix(0.91, 0.41, -0.41, 0.91, 671.68, 402.28)" fill="#fff"/></g><rect width="234.518" height="180.564" transform="matrix(0.914, 0.407, -0.407, 0.914, 112.269, 17.256)" fill="rgba(172,136,55,0.05)"/><path d="M13.754-18.941v3.38H5.98v4.42h5.954v3.25H5.98V-3.38h7.774V0H1.56V-18.941Zm6.656-.52V0H16.38V-19.461ZM24.258,0V-10.712l-.884-.182a1.826,1.826,0,0,1-.735-.325.779.779,0,0,1-.279-.65v-1.586h1.9v-.767a5.644,5.644,0,0,1,.371-2.093,4.429,4.429,0,0,1,1.066-1.6,4.8,4.8,0,0,1,1.7-1.027,6.63,6.63,0,0,1,2.275-.364,6.7,6.7,0,0,1,.917.059,6.388,6.388,0,0,1,.878.189L31.382-17.1a.65.65,0,0,1-.111.345.781.781,0,0,1-.24.221,1.083,1.083,0,0,1-.318.123,1.585,1.585,0,0,1-.345.039,3.927,3.927,0,0,0-.949.1,1.52,1.52,0,0,0-.7.371,1.667,1.667,0,0,0-.423.7,3.575,3.575,0,0,0-.143,1.1v.637H31.33V-10.7H28.288V0ZM38.584,3.5a1.442,1.442,0,0,1-.442.592,1.438,1.438,0,0,1-.832.188H34.294l2.6-5.46-5.382-12.3h3.562a1.137,1.137,0,0,1,.728.208,1.116,1.116,0,0,1,.364.494l2.21,5.811a12.805,12.805,0,0,1,.507,1.612q.13-.416.286-.819t.3-.819l2-5.785a.986.986,0,0,1,.41-.5,1.17,1.17,0,0,1,.656-.2h3.25Z" transform="matrix(0.914, 0.407, -0.407, 0.914, 95.754, 253.886)" fill="#31270f"/></g><g transform="matrix(0.914, 0.407, -0.407, 0.914, 126.813, 25.916)"><path d="M59.794,8.763,63.3,7.214l.041.082a105.321,105.321,0,0,1,77.035,0l.041-.082,3.505,1.549c36.357,15.978,59.834,51.112,59.834,89.548v.326a22.749,22.749,0,0,1-13.9,21.032,23.749,23.749,0,0,1-9.456,2,22.882,22.882,0,0,1-12.472-3.709c-9.741,35.134-36.4,59.3-66.071,59.3-29.713,0-56.329-24.17-66.071-59.3a22.748,22.748,0,0,1-12.432,3.709,23.462,23.462,0,0,1-9.456-2A22.813,22.813,0,0,1,0,98.637V98.27C-.041,59.875,23.437,24.741,59.794,8.763ZM168.131,33.382a31.388,31.388,0,0,0-2.16,11.413c0,15.9,11.983,29.184,27.92,32.363A90.8,90.8,0,0,0,168.131,33.382Zm1.549,76.831a15.867,15.867,0,0,0,17.282,2.853A15.624,15.624,0,0,0,196.5,98.637v-.326a87.822,87.822,0,0,0-1.06-13.532c-20.706-2.69-36.724-19.564-36.724-39.944a38.459,38.459,0,0,1,3.668-16.426,94.712,94.712,0,0,0-17.852-11.331,88,88,0,0,0-4.32,27.186A90.074,90.074,0,0,0,169.68,110.213Zm-67.823,59.834c27.309,0,51.886-23.559,59.957-57.348a97.071,97.071,0,0,1-28.776-68.435A95.792,95.792,0,0,1,137.929,14.1a97.892,97.892,0,0,0-72.144,0,95.374,95.374,0,0,1,4.81,26.208c19.809,3.424,34.849,19.89,34.849,39.7,0,22.254-19.075,40.352-42.471,40.352a43.864,43.864,0,0,1-20.42-5.013C51.275,147.752,75.241,170.047,101.857,170.047ZM45.65,108.786a36.89,36.89,0,0,0,17.363,4.321c19.442,0,35.216-14.836,35.216-33.1,0-15.774-11.82-29.021-27.594-32.322A96.974,96.974,0,0,1,45.65,108.786ZM7.214,98.637a15.646,15.646,0,0,0,9.538,14.429,15.792,15.792,0,0,0,17.282-2.853A89.993,89.993,0,0,0,63.421,44.264,87.615,87.615,0,0,0,59.1,17.078C27.431,32.567,7.174,64.033,7.174,98.311Z" transform="translate(0 0)" fill="#e2c27b"/><path d="M10.6.122c1.427.081,2.894.122,4.484.122S18.1.163,19.564.122c4.157-.2,7.418-.367,9.252,1.386a5.343,5.343,0,0,1,1.427,4.035c0,4.932-7.092,9.049-11.494,11.168v9.13a3.628,3.628,0,1,1-7.255,0v-9.13C7.092,14.591,0,10.475,0,5.543A5.133,5.133,0,0,1,1.427,1.508C3.179-.245,6.481-.082,10.6.122Z" transform="translate(86.776 122.563)" fill="#644f1f"/><path d="M10.027,0A9.986,9.986,0,1,1,0,9.986,10.011,10.011,0,0,1,10.027,0Zm2.812,9.741a2.812,2.812,0,1,0-2.812-2.812A2.818,2.818,0,0,0,12.839,9.741Z" transform="translate(115.919 76.301)"/><path d="M10.027,0A9.986,9.986,0,1,1,0,9.986,10.011,10.011,0,0,1,10.027,0Zm2.812,9.741a2.812,2.812,0,1,0-2.812-2.812A2.818,2.818,0,0,0,12.839,9.741Z" transform="translate(67.742 76.301)"/></g></g><g transform="translate(241.949 402.28)"><g transform="translate(0 0)"><g transform="matrix(1, 0, 0, 1, -241.95, -402.28)" filter="url(#o)"><rect width="259.696" height="262.1" transform="matrix(0.91, 0.41, -0.41, 0.91, 348.55, 402.28)" fill="#fff"/></g><rect width="234.518" height="180.564" transform="matrix(0.914, 0.407, -0.407, 0.914, 112.269, 17.256)" fill="rgba(172,136,55,0.05)"/><path d="M12.116-15.093a1.65,1.65,0,0,1-.41.468.916.916,0,0,1-.553.156,1.352,1.352,0,0,1-.643-.189q-.345-.188-.78-.422a6.473,6.473,0,0,0-.995-.422,3.979,3.979,0,0,0-1.274-.189,2.741,2.741,0,0,0-1.839.527,1.791,1.791,0,0,0-.6,1.423,1.311,1.311,0,0,0,.364.949,3.138,3.138,0,0,0,.956.65,10.242,10.242,0,0,0,1.352.5q.76.227,1.554.507a13.893,13.893,0,0,1,1.554.657,5.181,5.181,0,0,1,1.352.962A4.49,4.49,0,0,1,13.1-8.092a5.061,5.061,0,0,1,.364,2.021,6.587,6.587,0,0,1-.455,2.457,5.753,5.753,0,0,1-1.319,2A6.125,6.125,0,0,1,9.561-.28,7.976,7.976,0,0,1,6.682.208a9.23,9.23,0,0,1-1.8-.182A10.693,10.693,0,0,1,3.107-.488,10.29,10.29,0,0,1,1.5-1.274,6.849,6.849,0,0,1,.182-2.288l1.3-2.054a1.058,1.058,0,0,1,.4-.377,1.142,1.142,0,0,1,.559-.143,1.48,1.48,0,0,1,.786.247q.4.247.9.546a7.3,7.3,0,0,0,1.15.546,4.314,4.314,0,0,0,1.534.247A2.92,2.92,0,0,0,8.671-3.8a2,2,0,0,0,.663-1.671A1.579,1.579,0,0,0,8.97-6.552a2.812,2.812,0,0,0-.955-.689,8.8,8.8,0,0,0-1.346-.481q-.754-.208-1.547-.461a11.318,11.318,0,0,1-1.547-.624A4.882,4.882,0,0,1,2.23-9.783a4.563,4.563,0,0,1-.956-1.508A5.988,5.988,0,0,1,.91-13.52a5.29,5.29,0,0,1,.429-2.08A5.369,5.369,0,0,1,2.6-17.407a6.2,6.2,0,0,1,2.041-1.267,7.538,7.538,0,0,1,2.769-.475,10.383,10.383,0,0,1,1.7.137,8.918,8.918,0,0,1,1.566.4,8.6,8.6,0,0,1,1.385.637,6.383,6.383,0,0,1,1.151.839Zm7.7,1.612V0h-4.03V-13.481Zm.468-3.692a2.13,2.13,0,0,1-.2.9,2.378,2.378,0,0,1-.533.741,2.609,2.609,0,0,1-.787.507,2.441,2.441,0,0,1-.955.189,2.269,2.269,0,0,1-.923-.189,2.6,2.6,0,0,1-.761-.507,2.34,2.34,0,0,1-.52-.741,2.192,2.192,0,0,1-.188-.9,2.269,2.269,0,0,1,.188-.923,2.4,2.4,0,0,1,.52-.754,2.435,2.435,0,0,1,.761-.507,2.339,2.339,0,0,1,.923-.182,2.517,2.517,0,0,1,.955.182,2.454,2.454,0,0,1,.787.507,2.433,2.433,0,0,1,.533.754A2.2,2.2,0,0,1,20.28-17.173ZM23.062,0V-13.481h2.5a1.112,1.112,0,0,1,.631.169.9.9,0,0,1,.358.507l.221.728a7.478,7.478,0,0,1,.7-.643,4.514,4.514,0,0,1,.786-.507,4.378,4.378,0,0,1,.91-.338,4.364,4.364,0,0,1,1.073-.123,3.164,3.164,0,0,1,2.021.63,3.928,3.928,0,0,1,1.215,1.684,3.985,3.985,0,0,1,.826-1.066,4.433,4.433,0,0,1,1.053-.715,5.116,5.116,0,0,1,1.2-.4,6.2,6.2,0,0,1,1.255-.13,5.7,5.7,0,0,1,2.054.344,3.911,3.911,0,0,1,1.5,1,4.322,4.322,0,0,1,.917,1.612,6.959,6.959,0,0,1,.312,2.165V0h-4.03V-8.567q0-2.093-1.794-2.093a1.842,1.842,0,0,0-1.358.539,2.1,2.1,0,0,0-.54,1.554V0h-4.03V-8.567a2.305,2.305,0,0,0-.455-1.625,1.785,1.785,0,0,0-1.339-.468,2.256,2.256,0,0,0-1.033.247,3.756,3.756,0,0,0-.917.663V0ZM51.454-13.689a7.786,7.786,0,0,1,2.795.481,6.13,6.13,0,0,1,2.165,1.378,6.207,6.207,0,0,1,1.4,2.177,7.856,7.856,0,0,1,.5,2.879,8,8,0,0,1-.5,2.905,6.251,6.251,0,0,1-1.4,2.2A6.16,6.16,0,0,1,54.249-.28a7.693,7.693,0,0,1-2.795.488A7.783,7.783,0,0,1,48.639-.28a6.281,6.281,0,0,1-2.184-1.391,6.16,6.16,0,0,1-1.417-2.2,8,8,0,0,1-.5-2.905,7.856,7.856,0,0,1,.5-2.879,6.117,6.117,0,0,1,1.417-2.177,6.251,6.251,0,0,1,2.184-1.378A7.877,7.877,0,0,1,51.454-13.689Zm0,10.907A2.289,2.289,0,0,0,53.5-3.763a5.428,5.428,0,0,0,.657-2.983A5.394,5.394,0,0,0,53.5-9.724a2.294,2.294,0,0,0-2.047-.975,2.351,2.351,0,0,0-2.093.975A5.351,5.351,0,0,0,48.7-6.747a5.385,5.385,0,0,0,.663,2.983A2.345,2.345,0,0,0,51.454-2.782ZM60.528,0V-13.481h2.5a1.112,1.112,0,0,1,.631.169.9.9,0,0,1,.358.507l.234.78a9.791,9.791,0,0,1,.806-.676,4.721,4.721,0,0,1,.89-.527,5.286,5.286,0,0,1,1.027-.338,5.511,5.511,0,0,1,1.2-.123,4.72,4.72,0,0,1,1.956.383,4.06,4.06,0,0,1,1.437,1.066,4.6,4.6,0,0,1,.884,1.625,6.738,6.738,0,0,1,.3,2.048V0h-4.03V-8.567a2.357,2.357,0,0,0-.455-1.541,1.634,1.634,0,0,0-1.339-.552,2.8,2.8,0,0,0-1.248.286,4.853,4.853,0,0,0-1.118.767V0ZM81.38-13.689a6.941,6.941,0,0,1,2.451.416,5.327,5.327,0,0,1,1.911,1.209,5.518,5.518,0,0,1,1.248,1.943,7.132,7.132,0,0,1,.449,2.607,5.689,5.689,0,0,1-.039.741,1.173,1.173,0,0,1-.143.455.544.544,0,0,1-.28.234,1.309,1.309,0,0,1-.448.065H78.754a3.8,3.8,0,0,0,1.027,2.451,3.056,3.056,0,0,0,2.145.76,3.84,3.84,0,0,0,1.209-.169,6.1,6.1,0,0,0,.9-.377q.4-.208.728-.377a1.512,1.512,0,0,1,.7-.169.833.833,0,0,1,.728.351l1.17,1.443A5.991,5.991,0,0,1,86.014-.942a6.992,6.992,0,0,1-1.482.7,8.033,8.033,0,0,1-1.521.351,11.414,11.414,0,0,1-1.45.1A7.569,7.569,0,0,1,78.9-.254a6.109,6.109,0,0,1-2.171-1.371,6.471,6.471,0,0,1-1.469-2.262,8.452,8.452,0,0,1-.539-3.146,7.12,7.12,0,0,1,.461-2.561,6.308,6.308,0,0,1,1.326-2.119A6.313,6.313,0,0,1,78.6-13.156,6.908,6.908,0,0,1,81.38-13.689Zm.078,2.782a2.428,2.428,0,0,0-1.807.656,3.421,3.421,0,0,0-.858,1.891h5.031A3.557,3.557,0,0,0,83.7-9.3a2.269,2.269,0,0,0-.4-.813,2.051,2.051,0,0,0-.735-.579A2.512,2.512,0,0,0,81.458-10.907Z" transform="matrix(0.914, 0.407, -0.407, 0.914, 95.754, 253.886)" fill="#31270f"/></g><g transform="matrix(0.914, 0.407, -0.407, 0.914, 114.219, 17.745)"><path d="M1.355,25.387a2.246,2.246,0,0,1,2.909,1.22c2.393,5.819,11.591,8.447,16.846,7.7,7.039-.985,7.461-3.426,7.977-16a4.646,4.646,0,0,1-.8-.516C24.583,14.828,19,9.76,19,6.476,19,1.5,24.583,0,31.528,0c6.9,0,12.529,1.5,12.529,6.476,0,3.332-5.584,8.353-9.291,11.309a4.65,4.65,0,0,1-.8.516c.516,12.576.939,15.016,7.977,16,5.256.751,14.453-1.924,16.846-7.7A2.231,2.231,0,1,1,62.921,28.3C59.918,35.57,50.486,38.9,43.729,38.9a19.322,19.322,0,0,1-2.393-.141c-5.4-.751-8.212-2.675-9.761-5.866-1.549,3.238-4.364,5.115-9.761,5.866a19.322,19.322,0,0,1-2.393.141C12.664,38.9,3.232,35.57.228,28.3A2.1,2.1,0,0,1,1.355,25.387Z" transform="translate(85.835 116.563)" fill="#b4871f"/><path d="M46.459,19.99C81.7.892,98.546,2.346,101.972,2.956A39.732,39.732,0,0,1,117.316,0a40.485,40.485,0,0,1,15.532,2.909C136.7,2.3,153.59,1.22,188.174,19.99c27.592,14.969,46.269,38.479,46.456,58.516.141,12.482-6.663,22.994-19.662,30.408a19.951,19.951,0,0,1-10.042,2.722,21.914,21.914,0,0,1-7.743-1.455,33.285,33.285,0,0,1-7.7-4.129c-.235,2.206-.61,4.364-1.032,6.57a81.106,81.106,0,0,1-4.364,14.219l-1.267,2.956q-.845,1.9-1.83,3.8c-.188.328-.328.657-.516.985-1.22,2.3-2.534,4.6-3.989,6.851-.845,1.267-1.689,2.534-2.487,3.707l-.7,1.032c-3.754,5.35-9.479,13.421-18.348,20.084-10.605,7.977-23.228,12.013-37.634,12.013h-.047c-33.458,0-48.99-22.149-56.452-32.8l-.516-.7c-.751-1.079-1.5-2.206-2.206-3.332-1.408-2.252-2.769-4.552-3.942-6.851A93.612,93.612,0,0,1,50.213,126a78.635,78.635,0,0,1-3.66-11.731c-.094-.469-.235-.985-.328-1.455a67.408,67.408,0,0,1-1.079-6.757,33.286,33.286,0,0,1-7.7,4.129,21.915,21.915,0,0,1-7.743,1.455,20.078,20.078,0,0,1-10.042-2.722C6.666,101.5-.139,90.989,0,78.507.19,58.469,18.866,34.96,46.459,19.99Zm152.274,86.015c5.021,1.83,9.62,1.549,13.984-.985,11.685-6.663,17.55-15.579,17.409-26.513-.188-18.442-17.926-40.4-44.11-54.668-27.264-14.782-42.937-16.8-49.413-16.8h-.938C141.342,22.149,170.436,95.588,198.732,106.005Zm-21.4,24.918c0-.047.047-.047.047-.094a4.355,4.355,0,0,0,.235-.469c.188-.422.375-.8.563-1.22l.282-.563a12.756,12.756,0,0,0,.516-1.173c.094-.188.141-.328.235-.516l.7-1.689a80.68,80.68,0,0,0,4.129-13.468,66.245,66.245,0,0,0,1.22-8.963c-21.4-18.489-40.731-61.52-49.647-83.481a66.6,66.6,0,0,0-4.927,9.854,68.166,68.166,0,0,0-2.581,7.555c-.282.939-.516,1.877-.751,2.816a68.663,68.663,0,0,0-1.408,7.649,70.041,70.041,0,0,0-.61,9.385A64.009,64.009,0,0,0,126.8,70.06c.094.469.188.892.282,1.361A75.426,75.426,0,0,0,130.549,82.5a85.064,85.064,0,0,0,7.508,14.688c.657,1.079,1.408,2.112,2.112,3.144C147.208,110.416,170.014,127.872,177.334,130.923Zm-126.7-19c.094.469.188.892.282,1.361a75.426,75.426,0,0,0,3.472,11.074,84.693,84.693,0,0,0,3.754,8.165c1.126,2.206,2.393,4.364,3.754,6.523.657,1.032,1.361,2.112,2.112,3.144l.516.7c7.555,10.793,21.633,30.924,52.744,30.924h.047c30.971,0,44.861-19.662,52.322-30.22l.7-1.032q1.2-1.689,2.393-3.519c.892-1.361,1.736-2.816,2.534-4.223-9.854-4.411-32.05-22.337-38.808-31.956-.751-1.079-1.5-2.206-2.205-3.332a88.7,88.7,0,0,1-7.884-15.439,78.637,78.637,0,0,1-3.66-11.731c-.094-.469-.235-.985-.328-1.455A69.368,69.368,0,0,1,120.836,56.5a78.131,78.131,0,0,1,.657-9.948,79.658,79.658,0,0,1,1.5-8.118c.235-.985.516-2.018.8-3a70.47,70.47,0,0,1,2.769-8.024,74.656,74.656,0,0,1,5.725-11.262c.422-.7.892-1.361,1.361-2.065-1.361-3.426-2.3-5.96-2.769-7.273a36.34,36.34,0,0,0-13.468-2.44A34.84,34.84,0,0,0,103.9,6.945c-3.426,9.338-27.217,72.219-54.434,95.775A55.424,55.424,0,0,0,50.635,111.918Zm-28.718-6.851a15.873,15.873,0,0,0,13.984.985C64.2,95.635,93.243,22.149,98.921,7.18,93.15,6.992,77.289,8.353,48.57,23.932,22.386,38.151,4.648,60.112,4.46,78.6,4.366,89.487,10.232,98.4,21.916,105.067Z" transform="translate(0 0)" fill="#ebcb82"/><path d="M0,10.793A10.793,10.793,0,1,1,10.793,21.586,10.794,10.794,0,0,1,0,10.793Zm16.189,0c1.314,0,2.393-1.408,2.393-3.1S17.5,4.6,16.189,4.6,13.8,6.006,13.8,7.7,14.875,10.793,16.189,10.793Z" transform="translate(139.7 73.486)" fill="#e8c176"/><path d="M10.793,0A10.793,10.793,0,1,1,0,10.793,10.794,10.794,0,0,1,10.793,0Zm5.35,10.793c1.314,0,2.393-1.408,2.393-3.1s-1.079-3.1-2.393-3.1S13.75,6.006,13.75,7.7,14.829,10.793,16.143,10.793Z" transform="translate(73.347 73.486)" fill="#95c4eb"/></g></g><g transform="translate(887.282 0.333)"><g transform="translate(0 0)"><g transform="matrix(1, 0, 0, 1, -887.28, -0.33)" filter="url(#q)"><rect width="259.696" height="262.1" transform="matrix(0.91, 0.41, -0.41, 0.91, 993.89, 0.33)" fill="#fff"/></g><rect width="234.518" height="180.564" transform="matrix(0.914, 0.407, -0.407, 0.914, 112.269, 17.256)" fill="rgba(172,136,55,0.05)"/><path d="M.13-18.941H3.822a1.665,1.665,0,0,1,.956.26,1.191,1.191,0,0,1,.5.689l2.6,9.88q.13.481.26,1.027a9.254,9.254,0,0,1,.195,1.144q.13-.611.286-1.15t.3-1.021l3.068-9.88a1.362,1.362,0,0,1,.5-.657,1.488,1.488,0,0,1,.929-.292h1.3a1.633,1.633,0,0,1,.943.253,1.3,1.3,0,0,1,.513.7l3.042,9.88q.143.455.3.969t.273,1.1q.1-.572.215-1.092t.228-.975l2.6-9.88a1.236,1.236,0,0,1,.494-.663,1.539,1.539,0,0,1,.936-.286h3.458L21.866,0H17.888L14.326-11.739q-.091-.273-.189-.6t-.189-.689q-.091.364-.188.689t-.189.6L9.958,0H5.98ZM37.284,0a1.888,1.888,0,0,1-.864-.156,1.192,1.192,0,0,1-.488-.65l-.286-.741q-.507.429-.975.754a6.179,6.179,0,0,1-.969.552A4.783,4.783,0,0,1,32.637.1a6.56,6.56,0,0,1-1.255.111A5.5,5.5,0,0,1,29.7-.032a3.5,3.5,0,0,1-1.281-.708A3.115,3.115,0,0,1,27.612-1.9a4.2,4.2,0,0,1-.286-1.606,3.367,3.367,0,0,1,.364-1.469,3.624,3.624,0,0,1,1.261-1.372,8.014,8.014,0,0,1,2.418-1.034A16.224,16.224,0,0,1,35.2-7.852v-.572a2.472,2.472,0,0,0-.488-1.71,1.793,1.793,0,0,0-1.384-.526,3.673,3.673,0,0,0-1.17.156,5.26,5.26,0,0,0-.812.351q-.357.2-.7.351a1.91,1.91,0,0,1-.806.156,1.218,1.218,0,0,1-.708-.2,1.5,1.5,0,0,1-.462-.5l-.728-1.261a8.2,8.2,0,0,1,2.71-1.606,9.5,9.5,0,0,1,3.192-.526,5.837,5.837,0,0,1,2.2.4,4.742,4.742,0,0,1,1.664,1.1,4.828,4.828,0,0,1,1.046,1.684,6.05,6.05,0,0,1,.364,2.132V0ZM32.656-2.457a3.2,3.2,0,0,0,1.365-.273A4.158,4.158,0,0,0,35.2-3.614V-5.486a13.379,13.379,0,0,0-1.989.208,4.831,4.831,0,0,0-1.235.39,1.5,1.5,0,0,0-.63.533,1.261,1.261,0,0,0-.176.65,1.13,1.13,0,0,0,.377.968A1.839,1.839,0,0,0,32.656-2.457Zm13.494-17V0H42.12V-19.461ZM54.132.208a4.752,4.752,0,0,1-1.7-.28A3.37,3.37,0,0,1,51.2-.864a3.38,3.38,0,0,1-.761-1.241,4.806,4.806,0,0,1-.26-1.625V-10.7H49.036a.763.763,0,0,1-.533-.2.76.76,0,0,1-.221-.591v-1.573l2.145-.416.793-3.289a.8.8,0,0,1,.884-.624H54.21v3.939h3.276V-10.7H54.21V-4a1.26,1.26,0,0,0,.228.774.769.769,0,0,0,.657.306,1.29,1.29,0,0,0,.37-.046,1.475,1.475,0,0,0,.26-.1q.11-.059.208-.1a.533.533,0,0,1,.228-.046.469.469,0,0,1,.292.084,1.046,1.046,0,0,1,.228.267L57.9-.962a5.561,5.561,0,0,1-1.755.878A6.974,6.974,0,0,1,54.132.208Zm11.44-13.9a6.941,6.941,0,0,1,2.451.416,5.327,5.327,0,0,1,1.911,1.209,5.518,5.518,0,0,1,1.248,1.943,7.132,7.132,0,0,1,.449,2.607,5.689,5.689,0,0,1-.039.741,1.173,1.173,0,0,1-.143.455.544.544,0,0,1-.279.234,1.309,1.309,0,0,1-.449.065H62.946a3.8,3.8,0,0,0,1.027,2.451,3.056,3.056,0,0,0,2.145.76,3.84,3.84,0,0,0,1.209-.169,6.1,6.1,0,0,0,.9-.377q.4-.208.728-.377a1.512,1.512,0,0,1,.7-.169.833.833,0,0,1,.728.351l1.17,1.443A5.99,5.99,0,0,1,70.206-.942a6.992,6.992,0,0,1-1.482.7A8.033,8.033,0,0,1,67.2.111a11.414,11.414,0,0,1-1.45.1A7.569,7.569,0,0,1,63.1-.254a6.109,6.109,0,0,1-2.171-1.371,6.471,6.471,0,0,1-1.469-2.262,8.452,8.452,0,0,1-.54-3.146,7.12,7.12,0,0,1,.462-2.561A6.308,6.308,0,0,1,60.7-11.713,6.313,6.313,0,0,1,62.8-13.156,6.908,6.908,0,0,1,65.572-13.689Zm.078,2.782a2.428,2.428,0,0,0-1.807.656,3.421,3.421,0,0,0-.858,1.891h5.031a3.557,3.557,0,0,0-.123-.936,2.269,2.269,0,0,0-.4-.813,2.051,2.051,0,0,0-.734-.579A2.512,2.512,0,0,0,65.65-10.907ZM73.944,0V-13.481h2.392a2.04,2.04,0,0,1,.5.052.878.878,0,0,1,.338.163.693.693,0,0,1,.208.292,2.637,2.637,0,0,1,.124.442l.221,1.261a6.606,6.606,0,0,1,1.664-1.807,3.381,3.381,0,0,1,2.015-.663,2.321,2.321,0,0,1,1.482.442l-.52,2.964a.579.579,0,0,1-.208.384.706.706,0,0,1-.416.11,2.759,2.759,0,0,1-.52-.058,4.031,4.031,0,0,0-.754-.058,2.768,2.768,0,0,0-2.5,1.69V0Z" transform="matrix(0.914, 0.407, -0.407, 0.914, 95.754, 253.886)" fill="#31270f"/></g><g transform="matrix(0.914, 0.407, -0.407, 0.914, 115.747, 17.804)"><path d="M25.095,59.111C38.8,40.965,48.647,31.3,55.75,28.41a75.022,75.022,0,0,1,119.779,2.933,34.484,34.484,0,0,1,8.981,6.553c5.865,4.857,12.418,11.868,19.474,21.216,20.62,27.264,30.518,54.482,22.132,60.76-6.736,5.04-23.232-4.949-40.14-23.186a74.962,74.962,0,0,1-142.782.275c-17.321,19.108-33.4,28-40.186,22.911C-5.423,113.593,4.475,86.375,25.095,59.111Zm89.445,83.9a68.925,68.925,0,0,0,66.763-51.6c-.733-.825-1.466-1.7-2.154-2.566-14.709,9.852-40.965,10.127-52.283-3.712-14.709-18.008-1.42-39.59,13.38-50.679a33.355,33.355,0,0,1,25.019-6.323,69.075,69.075,0,0,0-101.725.229,7.536,7.536,0,0,1,1.008.642c8.431,6.232-1.512,42.523-9.164,52.879-2.566,3.482-5.132,6.736-7.652,9.76A69.132,69.132,0,0,0,114.54,143.011Zm38.307-75.881a10.4,10.4,0,1,0-10.4,10.356A10.384,10.384,0,0,0,152.847,67.129Z" transform="translate(0 0)"/><ellipse cx="3.262" cy="3.212" rx="3.262" ry="3.212" transform="translate(142.083 60.523)"/><path d="M11.392,0A11.342,11.342,0,1,1,0,11.342,11.373,11.373,0,0,1,11.392,0Zm2.559,10.79a3.212,3.212,0,1,0-3.262-3.212A3.312,3.312,0,0,0,13.951,10.79Z" transform="translate(75.508 55.901)" fill="#357bb7"/><path d="M5.36,23.111a10.134,10.134,0,0,0,16.912-7.076v-.05c-3.513-2.058-8.682-5.821-8.682-10.137,0-6.574,5.119-5.821,11.743-5.821,6.574,0,12.144-.753,12.144,5.821,0,4.316-5.169,8.08-8.682,10.137h0A10.075,10.075,0,0,0,38.883,25.67a10.431,10.431,0,0,0,6.825-2.61,3.308,3.308,0,0,1,4.617.2,3.244,3.244,0,0,1-.2,4.567,16.449,16.449,0,0,1-11.191,4.316,16.633,16.633,0,0,1-13.349-6.674,16.678,16.678,0,0,1-24.54,2.359,3.244,3.244,0,0,1-.2-4.567A3.18,3.18,0,0,1,5.36,23.111Z" transform="translate(89.045 92.636)"/></g></g><g transform="translate(1212.231 402.28)"><g transform="translate(0 0)"><g transform="matrix(1, 0, 0, 1, -1212.23, -402.28)" filter="url(#s)"><rect width="259.696" height="262.1" transform="matrix(0.91, 0.41, -0.41, 0.91, 1318.84, 402.28)" fill="#fff"/></g><rect width="234.518" height="180.564" transform="matrix(0.914, 0.407, -0.407, 0.914, 112.269, 17.256)" fill="rgba(172,136,55,0.05)"/><path d="M15.314-18.941v3.484H9.984V0H5.59V-15.457H.26v-3.484ZM23.322,0a1.888,1.888,0,0,1-.865-.156,1.192,1.192,0,0,1-.487-.65l-.286-.741q-.507.429-.975.754a6.179,6.179,0,0,1-.968.552A4.783,4.783,0,0,1,18.674.1,6.56,6.56,0,0,1,17.42.208a5.5,5.5,0,0,1-1.677-.241,3.5,3.5,0,0,1-1.28-.708A3.115,3.115,0,0,1,13.65-1.9a4.2,4.2,0,0,1-.286-1.606,3.367,3.367,0,0,1,.364-1.469,3.624,3.624,0,0,1,1.261-1.372,8.014,8.014,0,0,1,2.418-1.034,16.224,16.224,0,0,1,3.835-.468v-.572a2.472,2.472,0,0,0-.487-1.71,1.793,1.793,0,0,0-1.385-.526,3.673,3.673,0,0,0-1.17.156,5.26,5.26,0,0,0-.812.351q-.357.2-.7.351a1.91,1.91,0,0,1-.806.156,1.218,1.218,0,0,1-.708-.2,1.5,1.5,0,0,1-.462-.5l-.728-1.261A8.2,8.2,0,0,1,16.7-13.215a9.5,9.5,0,0,1,3.191-.526,5.837,5.837,0,0,1,2.2.4,4.742,4.742,0,0,1,1.664,1.1A4.828,4.828,0,0,1,24.8-10.556a6.05,6.05,0,0,1,.364,2.132V0ZM18.694-2.457a3.2,3.2,0,0,0,1.365-.273,4.158,4.158,0,0,0,1.183-.884V-5.486a13.379,13.379,0,0,0-1.989.208,4.831,4.831,0,0,0-1.235.39,1.5,1.5,0,0,0-.631.533,1.261,1.261,0,0,0-.176.65,1.13,1.13,0,0,0,.377.968A1.839,1.839,0,0,0,18.694-2.457ZM28.028,0V-13.481h2.5a1.112,1.112,0,0,1,.631.169.9.9,0,0,1,.358.507l.234.78a9.791,9.791,0,0,1,.806-.676,4.72,4.72,0,0,1,.89-.527,5.286,5.286,0,0,1,1.027-.338,5.511,5.511,0,0,1,1.2-.123,4.72,4.72,0,0,1,1.957.383,4.06,4.06,0,0,1,1.437,1.066,4.6,4.6,0,0,1,.884,1.625,6.738,6.738,0,0,1,.3,2.048V0h-4.03V-8.567a2.357,2.357,0,0,0-.455-1.541,1.634,1.634,0,0,0-1.339-.552,2.8,2.8,0,0,0-1.248.286,4.853,4.853,0,0,0-1.118.767V0Zm15.08,0V-13.481h2.5a1.112,1.112,0,0,1,.631.169.9.9,0,0,1,.357.507l.234.78a9.791,9.791,0,0,1,.806-.676,4.72,4.72,0,0,1,.89-.527,5.286,5.286,0,0,1,1.027-.338,5.511,5.511,0,0,1,1.2-.123,4.72,4.72,0,0,1,1.957.383,4.06,4.06,0,0,1,1.437,1.066,4.6,4.6,0,0,1,.884,1.625,6.738,6.738,0,0,1,.3,2.048V0H51.3V-8.567a2.357,2.357,0,0,0-.455-1.541A1.634,1.634,0,0,0,49.5-10.66a2.8,2.8,0,0,0-1.248.286,4.853,4.853,0,0,0-1.118.767V0ZM63.96-13.689a6.941,6.941,0,0,1,2.451.416,5.327,5.327,0,0,1,1.911,1.209,5.518,5.518,0,0,1,1.248,1.943,7.132,7.132,0,0,1,.449,2.607,5.689,5.689,0,0,1-.039.741,1.173,1.173,0,0,1-.143.455.544.544,0,0,1-.28.234,1.309,1.309,0,0,1-.448.065H61.334a3.8,3.8,0,0,0,1.027,2.451,3.056,3.056,0,0,0,2.145.76,3.84,3.84,0,0,0,1.209-.169,6.1,6.1,0,0,0,.9-.377q.4-.208.728-.377a1.512,1.512,0,0,1,.7-.169.833.833,0,0,1,.728.351l1.17,1.443A5.991,5.991,0,0,1,68.594-.942a6.992,6.992,0,0,1-1.482.7,8.033,8.033,0,0,1-1.521.351,11.414,11.414,0,0,1-1.45.1,7.569,7.569,0,0,1-2.659-.462,6.109,6.109,0,0,1-2.171-1.371,6.471,6.471,0,0,1-1.469-2.262,8.452,8.452,0,0,1-.54-3.146,7.12,7.12,0,0,1,.462-2.561,6.308,6.308,0,0,1,1.326-2.119,6.313,6.313,0,0,1,2.093-1.443A6.908,6.908,0,0,1,63.96-13.689Zm.078,2.782a2.428,2.428,0,0,0-1.807.656,3.421,3.421,0,0,0-.858,1.891H66.4a3.557,3.557,0,0,0-.123-.936,2.269,2.269,0,0,0-.4-.813,2.051,2.051,0,0,0-.735-.579A2.512,2.512,0,0,0,64.038-10.907ZM72.332,0V-13.481h2.392a2.04,2.04,0,0,1,.5.052.878.878,0,0,1,.338.163.693.693,0,0,1,.208.292,2.637,2.637,0,0,1,.124.442l.221,1.261a6.606,6.606,0,0,1,1.664-1.807,3.381,3.381,0,0,1,2.015-.663,2.321,2.321,0,0,1,1.482.442l-.52,2.964a.579.579,0,0,1-.208.384.706.706,0,0,1-.416.11,2.759,2.759,0,0,1-.52-.058,4.031,4.031,0,0,0-.754-.058,2.768,2.768,0,0,0-2.5,1.69V0Z" transform="matrix(0.914, 0.407, -0.407, 0.914, 95.754, 253.886)" fill="#31270f"/></g><g transform="matrix(0.914, 0.407, -0.407, 0.914, 126.505, 24.216)"><path d="M21.106,25.726C33.279,11.037,52.391,2.313,62.536,3.409a11.533,11.533,0,0,1,5.032,1.785,8.06,8.06,0,0,1,1.1.893C80.836.974,93.415,0,101.409,0h.041c7.994,0,20.573,1.014,32.746,6.087a8.06,8.06,0,0,1,1.1-.893,10.594,10.594,0,0,1,5.032-1.785c10.185-1.055,29.257,7.629,41.43,22.318,10.347,12.5,22.439,33.8,20.979,64.153-.852,17.367-12.985,27.755-23.981,28.688-.568.041-1.1.081-1.623.081a14.667,14.667,0,0,1-14.08-9.373,86.883,86.883,0,0,1-4.829,9.008v16.962c0,9.779-6.046,18.909-17,25.726-8.805,5.437-19.924,8.846-31.975,9.9a16.941,16.941,0,1,1-15.622,0c-12.052-1.055-23.21-4.464-31.975-9.9-10.956-6.776-17-15.906-17-25.726V118.284a86.885,86.885,0,0,1-4.829-9.008,14.667,14.667,0,0,1-14.08,9.373c-.528,0-1.055-.041-1.623-.081C13.112,117.635.979,107.247.127,89.88-1.374,59.528,10.718,38.224,21.106,25.726Zm51.412,2.759c-6.492,0-11.808,6.533-11.808,14.608S65.985,57.7,72.518,57.7c6.492,0,11.808-6.533,11.808-14.608S79.051,28.486,72.518,28.486Zm32.138-2.354c.365-6.614,1.1-15.866,1.867-21.912q-2.8-.122-5.113-.122h-.041q-2.313,0-5.113.122c.771,6.006,1.5,15.3,1.867,21.912.771,14.283-5.316,33.4-18.057,40.659-7.061,4.017-16.6,11.118-18.179,26.5-2.272,22.318-.73,28.526,3.165,42.2a61.974,61.974,0,0,0,20.776,10.55,47.685,47.685,0,0,0,15.46,1.745h.243a46.72,46.72,0,0,0,15.46-1.745,61.974,61.974,0,0,0,20.776-10.55c3.9-13.675,5.437-19.883,3.165-42.2-1.583-15.379-11.118-22.48-18.179-26.5C109.971,59.528,103.925,40.415,104.655,26.132ZM130.3,28.486c-6.492,0-11.808,6.533-11.808,14.608S123.767,57.7,130.3,57.7c6.492,0,11.808-6.533,11.808-14.608S136.793,28.486,130.3,28.486Zm33.152,59.69c.73,6.087,1.42,11.849,2.475,16.718,1.42,6.533,6.087,10.1,12.457,9.576,9.373-.812,19.518-10.307,20.208-24.793,1.38-29.013-10.144-49.383-20.086-61.354C166.942,14.365,150.224,7.385,141.946,7.385c-.446,0-.893.041-1.3.081A6.621,6.621,0,0,0,137.483,8.6a3.588,3.588,0,0,0-1.7,2.516c-.325,2.151.974,5.316,3.449,8.44C158.015,42.931,161.058,68.049,163.453,88.175ZM104.7,165.638a3.287,3.287,0,1,0-3.733,3.246h.893A3.284,3.284,0,0,0,104.7,165.638ZM88.587,185.887a12.823,12.823,0,1,0,13.391-12.863c-.2,0-.406.041-.609.041a3.07,3.07,0,0,1-.609-.041A12.846,12.846,0,0,0,88.587,185.887Zm5.559-19.153a9.949,9.949,0,0,1-.081-1.1,7.385,7.385,0,0,1,14.77,0,9.951,9.951,0,0,1-.081,1.1c25.645-2.151,45.447-15.46,45.447-31.529V124.29c-9.414,12.66-21.871,21.547-36.033,25.645a50.834,50.834,0,0,1-16.677,1.907c-.893.041-1.785.081-2.678.081a50.073,50.073,0,0,1-14-1.948c-14.2-4.139-26.619-12.985-36.033-25.645v10.915C48.658,151.274,68.5,164.624,94.146,166.734ZM4.185,89.677c.69,14.486,10.834,23.981,20.208,24.793,6.371.528,11.037-3.043,12.457-9.576,1.055-4.829,1.745-10.591,2.475-16.718,2.435-20.167,5.437-45.244,24.144-68.658,2.516-3.124,3.814-6.29,3.449-8.44a3.47,3.47,0,0,0-1.7-2.516,6.777,6.777,0,0,0-3.165-1.136c-.406-.041-.852-.081-1.3-.081-8.278,0-25,6.979-36.561,20.938C14.329,40.294,2.765,60.664,4.185,89.677Z" transform="translate(0 0)"/><path d="M56.3,18.45c0,5.7-6.426,12.024-19.176,18.761A14.269,14.269,0,0,1,33.6,38.455v24.2h0a10.06,10.06,0,0,0,.674,3.524c.207.57,1.866,1.555,4.2,1.4,6.426-.466,12.335-4.3,16.17-6.841a22.177,22.177,0,0,1,3.835-2.229,2.63,2.63,0,0,1,3.369,1.555,2.675,2.675,0,0,1-1.555,3.369,26.214,26.214,0,0,0-2.747,1.71c-4.094,2.643-10.884,7.1-18.658,7.722-.311,0-.622.052-.933.052A10.039,10.039,0,0,1,31,70.432,10.133,10.133,0,0,1,24.06,72.92a5.63,5.63,0,0,1-.933-.052C15.353,72.3,8.512,67.841,4.47,65.146a26.215,26.215,0,0,0-2.747-1.71,2.624,2.624,0,0,1,1.814-4.924,22.178,22.178,0,0,1,3.835,2.229c3.887,2.539,9.743,6.375,16.17,6.841,2.332.155,3.991-.829,4.2-1.4a10.368,10.368,0,0,0,.674-3.524v-24.2a15.054,15.054,0,0,1-3.524-1.244C12.192,30.474,5.714,24.151,5.714,18.45,5.714,8.292,17.063,0,31,0S56.3,8.24,56.3,18.45ZM31,5.234c-10.884,0-20.057,6.012-20.057,13.164,0,2.643,4.3,7.722,16.377,14.1a7.724,7.724,0,0,0,7.359,0C46.76,26.121,51.062,20.99,51.062,18.4,51.062,11.3,41.888,5.234,31,5.234Z" transform="translate(70.409 65.871)"/><path d="M9.329,18.658a9.329,9.329,0,1,1,9.329-9.329A9.356,9.356,0,0,1,9.329,18.658ZM12.283,4.405a2.954,2.954,0,1,0,2.954,2.954A2.953,2.953,0,0,0,12.283,4.405Z" transform="translate(118.604 38.792)" fill="#357bb7"/><path d="M9.329,18.658a9.329,9.329,0,1,1,9.329-9.329A9.356,9.356,0,0,1,9.329,18.658ZM12.335,4.405a2.954,2.954,0,1,0,2.954,2.954A2.987,2.987,0,0,0,12.335,4.405Z" transform="translate(65.558 38.792)" fill="#357bb7"/></g></g><g transform="translate(1537 0.333)"><g transform="translate(0)"><g transform="matrix(1, 0, 0, 1, -1537, -0.33)" filter="url(#u)"><rect width="259.696" height="262.1" transform="matrix(0.91, 0.41, -0.41, 0.91, 1643.61, 0.33)" fill="#fff"/></g><rect width="234.518" height="180.564" transform="matrix(0.914, 0.407, -0.407, 0.914, 112.269, 17.256)" fill="rgba(172,136,55,0.05)"/><path d="M14.287-4.9a.883.883,0,0,1,.312.058.848.848,0,0,1,.3.2L16.64-2.808A7.232,7.232,0,0,1,13.773-.553,10.031,10.031,0,0,1,9.7.208,9.709,9.709,0,0,1,5.831-.526a8.37,8.37,0,0,1-2.9-2.028A8.931,8.931,0,0,1,1.105-5.622,11.329,11.329,0,0,1,.468-9.477,10.162,10.162,0,0,1,1.2-13.37,9.081,9.081,0,0,1,3.23-16.432a9.177,9.177,0,0,1,3.126-2,10.9,10.9,0,0,1,4.017-.715,10.232,10.232,0,0,1,2.009.188,9.817,9.817,0,0,1,1.762.52,8.287,8.287,0,0,1,1.508.793,7.268,7.268,0,0,1,1.222,1.02l-1.482,1.989a1.887,1.887,0,0,1-.338.332.88.88,0,0,1-.546.149.975.975,0,0,1-.442-.1,4.886,4.886,0,0,1-.442-.254l-.514-.325a3.94,3.94,0,0,0-.663-.325,5.48,5.48,0,0,0-.9-.254,6.121,6.121,0,0,0-1.2-.1,5.5,5.5,0,0,0-2.184.423,4.788,4.788,0,0,0-1.7,1.209,5.607,5.607,0,0,0-1.105,1.9,7.471,7.471,0,0,0-.4,2.509,7.8,7.8,0,0,0,.4,2.587,5.681,5.681,0,0,0,1.079,1.9A4.579,4.579,0,0,0,8.034-3.809a4.761,4.761,0,0,0,1.95.4,9.334,9.334,0,0,0,1.092-.059,4.507,4.507,0,0,0,.917-.2,4.239,4.239,0,0,0,.806-.37,5.381,5.381,0,0,0,.774-.566,1.537,1.537,0,0,1,.338-.214A.886.886,0,0,1,14.287-4.9ZM18.642,0V-19.461h4.03V-12.3a6.553,6.553,0,0,1,1.58-1.008,4.927,4.927,0,0,1,2.035-.383,4.72,4.72,0,0,1,1.956.383,4.06,4.06,0,0,1,1.437,1.066,4.6,4.6,0,0,1,.884,1.625,6.738,6.738,0,0,1,.3,2.048V0h-4.03V-8.567a2.357,2.357,0,0,0-.455-1.541,1.634,1.634,0,0,0-1.339-.552,2.8,2.8,0,0,0-1.248.286,4.853,4.853,0,0,0-1.118.767V0ZM39.494-13.689a6.941,6.941,0,0,1,2.451.416,5.327,5.327,0,0,1,1.911,1.209A5.518,5.518,0,0,1,45.1-10.121a7.132,7.132,0,0,1,.448,2.607,5.69,5.69,0,0,1-.039.741,1.173,1.173,0,0,1-.143.455.544.544,0,0,1-.279.234,1.309,1.309,0,0,1-.449.065H36.868A3.8,3.8,0,0,0,37.9-3.569a3.056,3.056,0,0,0,2.145.76,3.84,3.84,0,0,0,1.209-.169,6.1,6.1,0,0,0,.9-.377q.4-.208.728-.377a1.512,1.512,0,0,1,.7-.169.833.833,0,0,1,.728.351l1.17,1.443A5.99,5.99,0,0,1,44.128-.942a6.992,6.992,0,0,1-1.482.7,8.033,8.033,0,0,1-1.521.351,11.414,11.414,0,0,1-1.45.1,7.569,7.569,0,0,1-2.659-.462,6.109,6.109,0,0,1-2.171-1.371,6.471,6.471,0,0,1-1.469-2.262,8.452,8.452,0,0,1-.54-3.146A7.12,7.12,0,0,1,33.3-9.594a6.308,6.308,0,0,1,1.326-2.119,6.313,6.313,0,0,1,2.093-1.443A6.908,6.908,0,0,1,39.494-13.689Zm.078,2.782a2.428,2.428,0,0,0-1.807.656,3.421,3.421,0,0,0-.858,1.891h5.031a3.557,3.557,0,0,0-.124-.936,2.269,2.269,0,0,0-.4-.813,2.051,2.051,0,0,0-.735-.579A2.512,2.512,0,0,0,39.572-10.907Zm16.536.377a1.042,1.042,0,0,1-.332.351.87.87,0,0,1-.449.1,1.433,1.433,0,0,1-.572-.123l-.618-.267a6.728,6.728,0,0,0-.748-.267,3.337,3.337,0,0,0-.949-.123,2.007,2.007,0,0,0-1.177.292.943.943,0,0,0-.41.813.814.814,0,0,0,.267.624,2.445,2.445,0,0,0,.708.436,9.772,9.772,0,0,0,1,.358q.559.169,1.144.377a10.187,10.187,0,0,1,1.144.487,4.279,4.279,0,0,1,1,.689,3.076,3.076,0,0,1,.708.995,3.368,3.368,0,0,1,.267,1.4,4.617,4.617,0,0,1-.364,1.846,3.92,3.92,0,0,1-1.085,1.456,5.133,5.133,0,0,1-1.781.949,8.022,8.022,0,0,1-2.437.338A7.417,7.417,0,0,1,50.05.078a9.545,9.545,0,0,1-1.333-.351A7.259,7.259,0,0,1,47.528-.8a5.159,5.159,0,0,1-.936-.657l.936-1.482a1.347,1.347,0,0,1,.4-.409,1.119,1.119,0,0,1,.611-.15,1.271,1.271,0,0,1,.631.156l.6.338a5.039,5.039,0,0,0,.76.338,3.3,3.3,0,0,0,1.1.156,2.79,2.79,0,0,0,.793-.1,1.4,1.4,0,0,0,.52-.266,1.064,1.064,0,0,0,.286-.377,1.06,1.06,0,0,0,.091-.429.876.876,0,0,0-.273-.663,2.378,2.378,0,0,0-.715-.448,8.717,8.717,0,0,0-1.007-.351q-.565-.162-1.15-.371a9.241,9.241,0,0,1-1.151-.5,3.958,3.958,0,0,1-1.007-.741,3.443,3.443,0,0,1-.715-1.1,4.058,4.058,0,0,1-.273-1.573,4.1,4.1,0,0,1,.332-1.631,3.788,3.788,0,0,1,.994-1.359,4.883,4.883,0,0,1,1.664-.929,7.194,7.194,0,0,1,2.34-.344,7.523,7.523,0,0,1,1.41.13,7.208,7.208,0,0,1,1.281.364,6.133,6.133,0,0,1,1.092.552,5.244,5.244,0,0,1,.871.7ZM64.038.208a4.752,4.752,0,0,1-1.7-.28,3.37,3.37,0,0,1-1.235-.793,3.38,3.38,0,0,1-.761-1.241,4.806,4.806,0,0,1-.26-1.625V-10.7H58.942a.763.763,0,0,1-.533-.2.76.76,0,0,1-.221-.591v-1.573l2.145-.416.793-3.289a.8.8,0,0,1,.884-.624h2.106v3.939h3.276V-10.7H64.116V-4a1.26,1.26,0,0,0,.228.774A.769.769,0,0,0,65-2.925a1.29,1.29,0,0,0,.37-.046,1.475,1.475,0,0,0,.26-.1q.11-.059.208-.1a.533.533,0,0,1,.227-.046.469.469,0,0,1,.293.084,1.046,1.046,0,0,1,.228.267L67.808-.962a5.561,5.561,0,0,1-1.755.878A6.974,6.974,0,0,1,64.038.208Zm11.44-13.9a6.941,6.941,0,0,1,2.451.416,5.327,5.327,0,0,1,1.911,1.209,5.518,5.518,0,0,1,1.248,1.943,7.132,7.132,0,0,1,.449,2.607,5.689,5.689,0,0,1-.039.741,1.173,1.173,0,0,1-.143.455.544.544,0,0,1-.28.234,1.309,1.309,0,0,1-.448.065H72.852a3.8,3.8,0,0,0,1.027,2.451,3.056,3.056,0,0,0,2.145.76,3.84,3.84,0,0,0,1.209-.169,6.1,6.1,0,0,0,.9-.377q.4-.208.728-.377a1.512,1.512,0,0,1,.7-.169.833.833,0,0,1,.728.351l1.17,1.443A5.991,5.991,0,0,1,80.113-.942a6.992,6.992,0,0,1-1.482.7A8.033,8.033,0,0,1,77.11.111a11.414,11.414,0,0,1-1.45.1A7.569,7.569,0,0,1,73-.254a6.109,6.109,0,0,1-2.171-1.371,6.471,6.471,0,0,1-1.469-2.262,8.452,8.452,0,0,1-.539-3.146,7.12,7.12,0,0,1,.461-2.561,6.308,6.308,0,0,1,1.326-2.119A6.313,6.313,0,0,1,72.7-13.156,6.908,6.908,0,0,1,75.478-13.689Zm.078,2.782a2.428,2.428,0,0,0-1.807.656,3.421,3.421,0,0,0-.858,1.891h5.031A3.557,3.557,0,0,0,77.8-9.3a2.269,2.269,0,0,0-.4-.813,2.051,2.051,0,0,0-.735-.579A2.512,2.512,0,0,0,75.556-10.907ZM83.85,0V-13.481h2.392a2.04,2.04,0,0,1,.5.052.878.878,0,0,1,.338.163.693.693,0,0,1,.208.292,2.637,2.637,0,0,1,.124.442l.221,1.261A6.606,6.606,0,0,1,89.3-13.078a3.381,3.381,0,0,1,2.015-.663,2.321,2.321,0,0,1,1.482.442l-.52,2.964a.579.579,0,0,1-.208.384.706.706,0,0,1-.416.11,2.759,2.759,0,0,1-.52-.058,4.031,4.031,0,0,0-.754-.058,2.768,2.768,0,0,0-2.5,1.69V0Z" transform="matrix(0.914, 0.407, -0.407, 0.914, 95.754, 253.886)" fill="#31270f"/></g><g transform="matrix(0.914, 0.407, -0.407, 0.914, 113.689, 17.745)"><path d="M24.016,13.347C35.064,2.53,51.823-2.576,66.863,1.277a14.518,14.518,0,0,1,4.781,2A27.4,27.4,0,0,1,82.6,11.908,97.824,97.824,0,0,1,149.493,12a27.568,27.568,0,0,1,11-8.681,14.518,14.518,0,0,1,4.781-2c15.041-3.853,31.8,1.253,42.847,12.07s25.068,25.114,23.954,40.48c-1.161,15.319-17.13,31.613-28.039,42.615-2.739,2.785-6.128,5.431-9.841,6.267-16.9,46.329-34.12,78.313-78.36,78.313-43.451,0-61.091-25.393-78.777-78.545-3.342-1.021-6.406-3.482-8.959-6.035C17.192,85.532,1.223,69.238.062,53.873-1.052,38.461,12.968,24.163,24.016,13.347ZM115.838,173.5c36.395,0,52.364-22.375,70.746-72.139-4.364-2.878-6.731-9.006-8.217-14.344Q169.8,56.449,161.192,25.834a18.342,18.342,0,0,1-2.414-.6,47.74,47.74,0,0,1-7.892-3.435,9.264,9.264,0,0,1-2.832-2.182,90.17,90.17,0,0,0-63.644-.279,8.462,8.462,0,0,1-3.064,2.46,44.133,44.133,0,0,1-7.892,3.435,11.486,11.486,0,0,1-2.414.6Q62.476,56.4,53.865,87.018c-1.578,5.663-4.085,12.162-8.959,14.762C61.432,151.265,77.122,173.5,115.838,173.5Z" transform="translate(0 0)" fill="#ac8837"/><path d="M1.149,24.371a1.929,1.929,0,0,1,2.507.975c1.81,4.224,5.06,6.824,8.5,6.824,5.014,0,9.191-5.338,9.841-12.209a8.035,8.035,0,0,1-3.853-2.182l-5.849-5.8A7.011,7.011,0,0,1,17.3,0H30.72a7.011,7.011,0,0,1,5.014,11.977l-5.849,5.8a8.484,8.484,0,0,1-3.853,2.182c.65,6.87,4.828,12.209,9.841,12.209,3.435,0,6.685-2.6,8.5-6.824A1.914,1.914,0,0,1,47.9,26.832c-2.414,5.617-7.01,9.145-12.023,9.145h-.325V47.071A11.026,11.026,0,0,1,24.5,58.027h-.975A11.026,11.026,0,0,1,12.476,47.071V35.977h-.325c-5.014,0-9.609-3.482-12.023-9.145A1.956,1.956,0,0,1,1.149,24.371Zm15.18,22.7a7.241,7.241,0,0,0,7.242,7.2H24.5a7.212,7.212,0,0,0,7.242-7.2V35.141a13.777,13.777,0,0,1-5.8-4.735V45.168a1.9,1.9,0,0,1-3.807,0V30.406a14.134,14.134,0,0,1-5.8,4.735Z" transform="translate(92.035 112.41)" fill="rgba(0,0,0,0.82)"/><path d="M0,12.627A12.7,12.7,0,1,1,12.72,25.253,12.65,12.65,0,0,1,0,12.627Zm17.083,0a3.2,3.2,0,1,0-3.2-3.2A3.21,3.21,0,0,0,17.083,12.627Z" transform="translate(133.849 77.78)" fill="#95c3eb"/><path d="M12.673,0A12.627,12.627,0,1,1,0,12.627,12.65,12.65,0,0,1,12.673,0Zm4.364,12.627a3.2,3.2,0,1,0-3.2-3.2A3.21,3.21,0,0,0,17.037,12.627Z" transform="translate(72.944 77.78)"/></g></g><g transform="translate(1537.912 402.28)"><g transform="translate(0 0)"><g transform="matrix(1, 0, 0, 1, -1537.91, -402.28)" filter="url(#w)"><rect width="259.696" height="262.1" transform="matrix(0.91, 0.41, -0.41, 0.91, 1644.52, 402.28)" fill="#fff"/></g><rect width="234.518" height="180.564" transform="matrix(0.914, 0.407, -0.407, 0.914, 112.269, 17.256)" fill="rgba(172,136,55,0.05)"/><path d="M14.287-4.9a.883.883,0,0,1,.312.058.848.848,0,0,1,.3.2L16.64-2.808A7.232,7.232,0,0,1,13.773-.553,10.031,10.031,0,0,1,9.7.208,9.709,9.709,0,0,1,5.831-.526a8.37,8.37,0,0,1-2.9-2.028A8.931,8.931,0,0,1,1.105-5.622,11.329,11.329,0,0,1,.468-9.477,10.162,10.162,0,0,1,1.2-13.37,9.081,9.081,0,0,1,3.23-16.432a9.177,9.177,0,0,1,3.126-2,10.9,10.9,0,0,1,4.017-.715,10.232,10.232,0,0,1,2.009.188,9.817,9.817,0,0,1,1.762.52,8.287,8.287,0,0,1,1.508.793,7.268,7.268,0,0,1,1.222,1.02l-1.482,1.989a1.887,1.887,0,0,1-.338.332.88.88,0,0,1-.546.149.975.975,0,0,1-.442-.1,4.886,4.886,0,0,1-.442-.254l-.514-.325a3.94,3.94,0,0,0-.663-.325,5.48,5.48,0,0,0-.9-.254,6.121,6.121,0,0,0-1.2-.1,5.5,5.5,0,0,0-2.184.423,4.788,4.788,0,0,0-1.7,1.209,5.607,5.607,0,0,0-1.105,1.9,7.471,7.471,0,0,0-.4,2.509,7.8,7.8,0,0,0,.4,2.587,5.681,5.681,0,0,0,1.079,1.9A4.579,4.579,0,0,0,8.034-3.809a4.761,4.761,0,0,0,1.95.4,9.334,9.334,0,0,0,1.092-.059,4.507,4.507,0,0,0,.917-.2,4.239,4.239,0,0,0,.806-.37,5.381,5.381,0,0,0,.774-.566,1.537,1.537,0,0,1,.338-.214A.886.886,0,0,1,14.287-4.9ZM27.95,0a1.888,1.888,0,0,1-.865-.156,1.192,1.192,0,0,1-.488-.65l-.286-.741q-.507.429-.975.754a6.18,6.18,0,0,1-.969.552A4.783,4.783,0,0,1,23.3.1a6.56,6.56,0,0,1-1.255.111,5.5,5.5,0,0,1-1.677-.241A3.5,3.5,0,0,1,19.09-.741,3.115,3.115,0,0,1,18.278-1.9a4.2,4.2,0,0,1-.286-1.606,3.367,3.367,0,0,1,.364-1.469,3.624,3.624,0,0,1,1.261-1.372,8.014,8.014,0,0,1,2.418-1.034,16.224,16.224,0,0,1,3.835-.468v-.572a2.472,2.472,0,0,0-.488-1.71A1.793,1.793,0,0,0,24-10.66a3.673,3.673,0,0,0-1.17.156,5.26,5.26,0,0,0-.812.351q-.357.2-.7.351a1.91,1.91,0,0,1-.806.156,1.218,1.218,0,0,1-.708-.2,1.5,1.5,0,0,1-.462-.5l-.728-1.261a8.2,8.2,0,0,1,2.71-1.606,9.5,9.5,0,0,1,3.192-.526,5.837,5.837,0,0,1,2.2.4,4.742,4.742,0,0,1,1.664,1.1,4.828,4.828,0,0,1,1.046,1.684A6.05,6.05,0,0,1,29.8-8.424V0ZM23.322-2.457a3.2,3.2,0,0,0,1.365-.273,4.158,4.158,0,0,0,1.183-.884V-5.486a13.379,13.379,0,0,0-1.989.208,4.832,4.832,0,0,0-1.235.39,1.5,1.5,0,0,0-.63.533,1.261,1.261,0,0,0-.176.65,1.13,1.13,0,0,0,.377.968A1.839,1.839,0,0,0,23.322-2.457ZM40.9-10.53a1.042,1.042,0,0,1-.332.351.87.87,0,0,1-.449.1,1.433,1.433,0,0,1-.572-.123l-.618-.267a6.728,6.728,0,0,0-.748-.267,3.337,3.337,0,0,0-.949-.123,2.007,2.007,0,0,0-1.177.292.943.943,0,0,0-.41.813.814.814,0,0,0,.267.624,2.445,2.445,0,0,0,.708.436,9.772,9.772,0,0,0,1,.358q.559.169,1.144.377a10.187,10.187,0,0,1,1.144.487,4.279,4.279,0,0,1,1,.689,3.076,3.076,0,0,1,.708.995,3.368,3.368,0,0,1,.267,1.4,4.617,4.617,0,0,1-.364,1.846,3.92,3.92,0,0,1-1.085,1.456,5.133,5.133,0,0,1-1.781.949,8.022,8.022,0,0,1-2.437.338A7.417,7.417,0,0,1,34.84.078a9.545,9.545,0,0,1-1.333-.351A7.259,7.259,0,0,1,32.318-.8a5.159,5.159,0,0,1-.936-.657l.936-1.482a1.347,1.347,0,0,1,.4-.409,1.119,1.119,0,0,1,.611-.15,1.271,1.271,0,0,1,.631.156l.6.338a5.039,5.039,0,0,0,.76.338,3.3,3.3,0,0,0,1.1.156,2.79,2.79,0,0,0,.793-.1,1.4,1.4,0,0,0,.52-.266,1.064,1.064,0,0,0,.286-.377,1.06,1.06,0,0,0,.091-.429.876.876,0,0,0-.273-.663,2.378,2.378,0,0,0-.715-.448,8.717,8.717,0,0,0-1.007-.351q-.565-.162-1.15-.371a9.241,9.241,0,0,1-1.151-.5,3.958,3.958,0,0,1-1.007-.741,3.443,3.443,0,0,1-.715-1.1,4.058,4.058,0,0,1-.273-1.573,4.1,4.1,0,0,1,.332-1.631,3.788,3.788,0,0,1,.994-1.359,4.883,4.883,0,0,1,1.664-.929,7.194,7.194,0,0,1,2.34-.344,7.523,7.523,0,0,1,1.41.13,7.208,7.208,0,0,1,1.281.364,6.133,6.133,0,0,1,1.092.552,5.244,5.244,0,0,1,.871.7Zm8.97-3.159a6.941,6.941,0,0,1,2.451.416,5.327,5.327,0,0,1,1.911,1.209,5.518,5.518,0,0,1,1.248,1.943,7.132,7.132,0,0,1,.448,2.607,5.69,5.69,0,0,1-.039.741,1.173,1.173,0,0,1-.143.455.544.544,0,0,1-.279.234,1.309,1.309,0,0,1-.449.065H47.242a3.8,3.8,0,0,0,1.027,2.451,3.056,3.056,0,0,0,2.145.76,3.84,3.84,0,0,0,1.209-.169,6.1,6.1,0,0,0,.9-.377q.4-.208.728-.377a1.512,1.512,0,0,1,.7-.169.833.833,0,0,1,.728.351l1.17,1.443A5.99,5.99,0,0,1,54.5-.942a6.992,6.992,0,0,1-1.482.7A8.033,8.033,0,0,1,51.5.111a11.414,11.414,0,0,1-1.45.1,7.569,7.569,0,0,1-2.659-.462,6.109,6.109,0,0,1-2.171-1.371,6.471,6.471,0,0,1-1.469-2.262,8.452,8.452,0,0,1-.54-3.146,7.12,7.12,0,0,1,.462-2.561A6.308,6.308,0,0,1,45-11.713a6.313,6.313,0,0,1,2.093-1.443A6.908,6.908,0,0,1,49.868-13.689Zm.078,2.782a2.428,2.428,0,0,0-1.807.656,3.421,3.421,0,0,0-.858,1.891h5.031a3.557,3.557,0,0,0-.124-.936,2.269,2.269,0,0,0-.4-.813,2.051,2.051,0,0,0-.735-.579A2.512,2.512,0,0,0,49.946-10.907ZM63.232,3.5a1.442,1.442,0,0,1-.442.592,1.438,1.438,0,0,1-.832.188H58.942l2.6-5.46-5.382-12.3h3.562a1.137,1.137,0,0,1,.728.208,1.116,1.116,0,0,1,.364.494l2.21,5.811a12.805,12.805,0,0,1,.507,1.612q.13-.416.286-.819t.3-.819l2-5.785a.986.986,0,0,1,.41-.5,1.17,1.17,0,0,1,.657-.2h3.25Z" transform="matrix(0.914, 0.407, -0.407, 0.914, 95.754, 253.886)" fill="#31270f"/></g><g transform="matrix(0.914, 0.407, -0.407, 0.914, 114.583, 17.745)"><path d="M25.095,59.11C38.8,40.964,48.647,31.3,55.749,28.409a75.021,75.021,0,0,1,119.777,2.933,34.482,34.482,0,0,1,8.981,6.552c5.865,4.857,12.418,11.868,19.474,21.215,20.62,27.264,30.517,54.482,22.132,60.759-6.736,5.04-23.232-4.949-40.14-23.186a74.962,74.962,0,0,1-142.78.275c-17.321,19.108-33.4,28-40.185,22.911C-5.423,113.592,4.475,86.374,25.095,59.11Zm89.444,83.9a68.924,68.924,0,0,0,66.762-51.6c-.733-.825-1.466-1.7-2.154-2.566-14.709,9.852-40.964,10.127-52.282-3.712-14.709-18.008-1.42-39.59,13.38-50.679a33.354,33.354,0,0,1,25.019-6.323,69.074,69.074,0,0,0-101.724.229A7.539,7.539,0,0,1,64.547,29c8.431,6.232-1.512,42.522-9.164,52.878-2.566,3.482-5.132,6.736-7.652,9.76A69.131,69.131,0,0,0,114.538,143.009Zm38.307-75.88a10.4,10.4,0,1,0-10.4,10.356A10.384,10.384,0,0,0,152.845,67.129Z" transform="translate(0 0)" fill="#d29e4a"/><ellipse cx="2.978" cy="2.933" rx="2.978" ry="2.933" transform="translate(142.443 60.759)"/><path d="M10.4,0A10.356,10.356,0,1,1,0,10.356,10.384,10.384,0,0,1,10.4,0Zm2.337,9.852A2.933,2.933,0,1,0,9.76,6.919,3.024,3.024,0,0,0,12.738,9.852Z" transform="translate(76.231 56.773)"/><path d="M4.895,21.1a9.253,9.253,0,0,0,15.442-6.461V14.6c-3.207-1.879-7.927-5.315-7.927-9.256,0-6,4.674-5.315,10.722-5.315,6,0,11.089-.687,11.089,5.315,0,3.941-4.72,7.377-7.927,9.256h0a9.2,9.2,0,0,0,9.21,8.844,9.524,9.524,0,0,0,6.232-2.383,3.02,3.02,0,0,1,4.216.183,2.963,2.963,0,0,1-.183,4.17A15.019,15.019,0,0,1,35.549,29.35a15.188,15.188,0,0,1-12.189-6.094A15.228,15.228,0,0,1,.954,25.409a2.962,2.962,0,0,1-.183-4.17A2.9,2.9,0,0,1,4.895,21.1Z" transform="translate(91.269 97.438)"/></g></g></g></svg>