<svg xmlns="http://www.w3.org/2000/svg" width="54.8" height="54.799" viewBox="0 0 54.8 54.799"><g transform="translate(-9.114 -1.067)"><g transform="translate(9.114 1.067)"><path d="M161.494,70.517l-6.38,4.035a.8.8,0,0,0-.126,1.309,12.291,12.291,0,0,1,3.342,6.672l-2.13.052a1.713,1.713,0,0,0-1.449,2.63l3.067,4.849,4.836,7.649a1.712,1.712,0,0,0,2.9,0l7.9-12.5a1.677,1.677,0,0,0,.259-.936,1.984,1.984,0,0,0-.294-.963A1.659,1.659,0,0,0,172,82.58l-2.255-.034a23.173,23.173,0,0,0-2.933-9.65,25.8,25.8,0,0,0-2.8-3.993c-.333-.385-.756-.289-1.025.142a4.367,4.367,0,0,1-1.5,1.472Z" transform="translate(-118.912 -56.989)"/><path d="M179.892,78.445l-4.035-6.38a.8.8,0,0,0-1.309-.126,12.291,12.291,0,0,1-6.672,3.342l-.052-2.13a1.713,1.713,0,0,0-2.63-1.449l-4.849,3.067L152.7,79.6a1.711,1.711,0,0,0,0,2.9l12.5,7.9a1.678,1.678,0,0,0,.936.259,1.983,1.983,0,0,0,.963-.294,1.658,1.658,0,0,0,.736-1.413l.035-2.255a23.172,23.172,0,0,0,9.65-2.933,25.826,25.826,0,0,0,3.993-2.8c.385-.333.289-.756-.141-1.025a4.362,4.362,0,0,1-1.472-1.5Z" transform="translate(-138.621 -35.864)"/><path d="M162.576,96.844l6.38-4.035a.8.8,0,0,0,.126-1.309,12.291,12.291,0,0,1-3.342-6.672l2.131-.052a1.713,1.713,0,0,0,1.449-2.63L166.253,77.3l-4.836-7.649a1.712,1.712,0,0,0-2.9,0l-7.9,12.5a1.678,1.678,0,0,0-.259.936,1.984,1.984,0,0,0,.294.963,1.659,1.659,0,0,0,1.413.736l2.255.034a23.174,23.174,0,0,0,2.933,9.65,25.805,25.805,0,0,0,2.8,3.993c.333.385.756.289,1.025-.142a4.368,4.368,0,0,1,1.5-1.472Z" transform="translate(-150.357 -55.573)"/><path d="M153.566,79.527l4.035,6.38a.8.8,0,0,0,1.309.126,12.292,12.292,0,0,1,6.672-3.342l.052,2.13a1.713,1.713,0,0,0,2.63,1.449l4.849-3.067,7.649-4.836a1.711,1.711,0,0,0,0-2.9l-12.5-7.9a1.678,1.678,0,0,0-.936-.259,1.982,1.982,0,0,0-.963.294,1.658,1.658,0,0,0-.736,1.413l-.035,2.255a23.174,23.174,0,0,0-9.65,2.933,25.835,25.835,0,0,0-3.993,2.8c-.385.333-.289.756.141,1.025a4.363,4.363,0,0,1,1.472,1.5Z" transform="translate(-140.037 -67.308)"/></g></g></svg>