<svg xmlns="http://www.w3.org/2000/svg" width="202.852" height="202.889" viewBox="0 0 202.852 202.889"><g transform="matrix(0.602, -0.799, 0.799, 0.602, 190.064, 136.349)"><g transform="translate(-5.49 -233.849) rotate(53)"><path d="M21.106,25.726C33.279,11.037,52.391,2.313,62.536,3.409a11.533,11.533,0,0,1,5.032,1.785,8.06,8.06,0,0,1,1.1.893C80.836.974,93.415,0,101.409,0h.041c7.994,0,20.573,1.014,32.746,6.087a8.06,8.06,0,0,1,1.1-.893,10.594,10.594,0,0,1,5.032-1.785c10.185-1.055,29.257,7.629,41.43,22.318,10.347,12.5,22.439,33.8,20.979,64.153-.852,17.367-12.985,27.755-23.981,28.688-.568.041-1.1.081-1.623.081a14.667,14.667,0,0,1-14.08-9.373,86.883,86.883,0,0,1-4.829,9.008v16.962c0,9.779-6.046,18.909-17,25.726-8.805,5.437-19.924,8.846-31.975,9.9a16.941,16.941,0,1,1-15.622,0c-12.052-1.055-23.21-4.464-31.975-9.9-10.956-6.776-17-15.906-17-25.726V118.284a86.885,86.885,0,0,1-4.829-9.008,14.667,14.667,0,0,1-14.08,9.373c-.528,0-1.055-.041-1.623-.081C13.112,117.635.979,107.247.127,89.88-1.374,59.528,10.718,38.224,21.106,25.726Zm51.412,2.759c-6.492,0-11.808,6.533-11.808,14.608S65.985,57.7,72.518,57.7c6.492,0,11.808-6.533,11.808-14.608S79.051,28.486,72.518,28.486Zm32.138-2.354c.365-6.614,1.1-15.866,1.867-21.912q-2.8-.122-5.113-.122h-.041q-2.313,0-5.113.122c.771,6.006,1.5,15.3,1.867,21.912.771,14.283-5.316,33.4-18.057,40.659-7.061,4.017-16.6,11.118-18.179,26.5-2.272,22.318-.73,28.526,3.165,42.2a61.974,61.974,0,0,0,20.776,10.55,47.685,47.685,0,0,0,15.46,1.745h.243a46.72,46.72,0,0,0,15.46-1.745,61.974,61.974,0,0,0,20.776-10.55c3.9-13.675,5.437-19.883,3.165-42.2-1.583-15.379-11.118-22.48-18.179-26.5C109.971,59.528,103.925,40.415,104.655,26.132ZM130.3,28.486c-6.492,0-11.808,6.533-11.808,14.608S123.767,57.7,130.3,57.7c6.492,0,11.808-6.533,11.808-14.608S136.793,28.486,130.3,28.486Zm33.152,59.69c.73,6.087,1.42,11.849,2.475,16.718,1.42,6.533,6.087,10.1,12.457,9.576,9.373-.812,19.518-10.307,20.208-24.793,1.38-29.013-10.144-49.383-20.086-61.354C166.942,14.365,150.224,7.385,141.946,7.385c-.446,0-.893.041-1.3.081A6.621,6.621,0,0,0,137.483,8.6a3.588,3.588,0,0,0-1.7,2.516c-.325,2.151.974,5.316,3.449,8.44C158.015,42.931,161.058,68.049,163.453,88.175ZM104.7,165.638a3.287,3.287,0,1,0-3.733,3.246h.893A3.284,3.284,0,0,0,104.7,165.638ZM88.587,185.887a12.823,12.823,0,1,0,13.391-12.863c-.2,0-.406.041-.609.041a3.07,3.07,0,0,1-.609-.041A12.846,12.846,0,0,0,88.587,185.887Zm5.559-19.153a9.949,9.949,0,0,1-.081-1.1,7.385,7.385,0,0,1,14.77,0,9.951,9.951,0,0,1-.081,1.1c25.645-2.151,45.447-15.46,45.447-31.529V124.29c-9.414,12.66-21.871,21.547-36.033,25.645a50.834,50.834,0,0,1-16.677,1.907c-.893.041-1.785.081-2.678.081a50.073,50.073,0,0,1-14-1.948c-14.2-4.139-26.619-12.985-36.033-25.645v10.915C48.658,151.274,68.5,164.624,94.146,166.734ZM4.185,89.677c.69,14.486,10.834,23.981,20.208,24.793,6.371.528,11.037-3.043,12.457-9.576,1.055-4.829,1.745-10.591,2.475-16.718,2.435-20.167,5.437-45.244,24.144-68.658,2.516-3.124,3.814-6.29,3.449-8.44a3.47,3.47,0,0,0-1.7-2.516,6.777,6.777,0,0,0-3.165-1.136c-.406-.041-.852-.081-1.3-.081-8.278,0-25,6.979-36.561,20.938C14.329,40.294,2.765,60.664,4.185,89.677Z" transform="translate(0 0)"/><path d="M56.3,18.45c0,5.7-6.426,12.024-19.176,18.761A14.269,14.269,0,0,1,33.6,38.455v24.2h0a10.06,10.06,0,0,0,.674,3.524c.207.57,1.866,1.555,4.2,1.4,6.426-.466,12.335-4.3,16.17-6.841a22.177,22.177,0,0,1,3.835-2.229,2.63,2.63,0,0,1,3.369,1.555,2.675,2.675,0,0,1-1.555,3.369,26.214,26.214,0,0,0-2.747,1.71c-4.094,2.643-10.884,7.1-18.658,7.722-.311,0-.622.052-.933.052A10.039,10.039,0,0,1,31,70.432,10.133,10.133,0,0,1,24.06,72.92a5.63,5.63,0,0,1-.933-.052C15.353,72.3,8.512,67.841,4.47,65.146a26.215,26.215,0,0,0-2.747-1.71,2.624,2.624,0,0,1,1.814-4.924,22.178,22.178,0,0,1,3.835,2.229c3.887,2.539,9.743,6.375,16.17,6.841,2.332.155,3.991-.829,4.2-1.4a10.368,10.368,0,0,0,.674-3.524v-24.2a15.054,15.054,0,0,1-3.524-1.244C12.192,30.474,5.714,24.151,5.714,18.45,5.714,8.292,17.063,0,31,0S56.3,8.24,56.3,18.45ZM31,5.234c-10.884,0-20.057,6.012-20.057,13.164,0,2.643,4.3,7.722,16.377,14.1a7.724,7.724,0,0,0,7.359,0C46.76,26.121,51.062,20.99,51.062,18.4,51.062,11.3,41.888,5.234,31,5.234Z" transform="translate(70.409 65.871)"/><path d="M9.329,18.658a9.329,9.329,0,1,1,9.329-9.329A9.356,9.356,0,0,1,9.329,18.658ZM12.283,4.405a2.954,2.954,0,1,0,2.954,2.954A2.953,2.953,0,0,0,12.283,4.405Z" transform="translate(118.604 38.792)" fill="#357bb7"/><path d="M9.329,18.658a9.329,9.329,0,1,1,9.329-9.329A9.356,9.356,0,0,1,9.329,18.658ZM12.335,4.405a2.954,2.954,0,1,0,2.954,2.954A2.987,2.987,0,0,0,12.335,4.405Z" transform="translate(65.558 38.792)" fill="#357bb7"/></g></g></svg>