<svg xmlns="http://www.w3.org/2000/svg" width="46.157" height="44.41" viewBox="0 0 46.157 44.41"><g transform="translate(0)"><g transform="translate(0)"><path d="M391.866,439.079a34.849,34.849,0,0,0,9.142-.29l1.6-3.628L413.923,434l11.9,5.079,4.934-1.306a2.113,2.113,0,0,1,1.161,4.063l-5.079,1.451-2.177,4.789a26.8,26.8,0,0,0,7.256,7.691c2.322,1.6-.145,5.079-2.467,3.483a29.32,29.32,0,0,1-5.369-4.934,19.1,19.1,0,0,0,2.757,4.208c1.741,2.177-1.6,4.789-3.338,2.612a30.565,30.565,0,0,1-5.659-11.029L401.589,443a39.715,39.715,0,0,1-10.158.29A2.116,2.116,0,0,1,391.866,439.079Z" transform="translate(-387.273 -417.545)" fill-rule="evenodd"/><path d="M533.936,334.014c-3.193,0-8.126-1.306-6.675-5.369.726-2.032,5.95-1.451,6.53-1.741,1.741-.58,2.612-1.741,4.353-2.032,1.886-.435,1.161-.29,1.886-2.177,1.016-2.757,4.5-3.047,3.918.726-.435,3.047,1.016,8.707,1.741,12.044L535.1,336.626S534.226,334.014,533.936,334.014Z" transform="translate(-519.476 -320.606)" fill-rule="evenodd"/><circle cx="2" cy="2" r="2" transform="translate(0 3.919)"/><circle cx="1.5" cy="1.5" r="1.5" transform="translate(17 5.919)" fill="#fff"/></g></g></svg>