<svg xmlns="http://www.w3.org/2000/svg" width="43.874" height="37.268" viewBox="0 0 43.874 37.268">
  <g id="noun-puppy-2778283" transform="matrix(0.914, 0.407, -0.407, 0.914, 9.848, 0)">
    <path id="Path_24" data-name="Path 24" d="M4.08,9.61C6.307,6.66,7.909,5.088,9.064,4.619A12.2,12.2,0,0,1,28.537,5.1,5.606,5.606,0,0,1,30,6.161,20.646,20.646,0,0,1,33.163,9.61c3.352,4.433,4.961,8.858,3.6,9.878-1.1.819-3.777-.8-6.526-3.77a12.187,12.187,0,0,1-23.213.045C4.207,18.87,1.592,20.315.489,19.488-.882,18.468.728,14.043,4.08,9.61ZM18.622,23.25a11.206,11.206,0,0,0,10.854-8.388c-.119-.134-.238-.276-.35-.417-2.391,1.6-6.66,1.646-8.5-.6C18.234,10.914,20.395,7.4,22.8,5.6a5.423,5.423,0,0,1,4.068-1.028,11.23,11.23,0,0,0-16.538.037,1.226,1.226,0,0,1,.164.1c1.371,1.013-.246,6.913-1.49,8.6-.417.566-.834,1.1-1.244,1.587A11.239,11.239,0,0,0,18.622,23.25Zm6.228-12.337A1.691,1.691,0,1,0,23.158,12.6,1.688,1.688,0,0,0,24.849,10.914Z" transform="translate(0)" fill="#674d24"/>
    <ellipse id="Ellipse_1" data-name="Ellipse 1" cx="0.484" cy="0.477" rx="0.484" ry="0.477" transform="translate(23.158 9.878)"/>
    <path id="Path_25" data-name="Path 25" d="M1.691,0A1.684,1.684,0,1,1,0,1.684,1.688,1.688,0,0,1,1.691,0Zm.38,1.6a.477.477,0,1,0-.484-.477A.492.492,0,0,0,2.071,1.6Z" transform="translate(12.394 9.23)"/>
    <path id="Path_26" data-name="Path 26" d="M.8,3.431A1.5,1.5,0,0,0,3.306,2.38V2.373c-.521-.305-1.289-.864-1.289-1.5,0-.976.76-.864,1.743-.864s1.8-.112,1.8.864c0,.641-.767,1.2-1.289,1.5h0a1.5,1.5,0,0,0,1.5,1.438,1.548,1.548,0,0,0,1.013-.387.491.491,0,0,1,.685.03.482.482,0,0,1-.03.678,2.442,2.442,0,0,1-1.661.641A2.469,2.469,0,0,1,3.8,3.781a2.476,2.476,0,0,1-3.643.35.482.482,0,0,1-.03-.678A.472.472,0,0,1,.8,3.431Z" transform="translate(14.839 15.841)"/>
  </g>
</svg>
