<svg xmlns="http://www.w3.org/2000/svg" width="46.157" height="48.015" viewBox="0 0 46.157 48.015"><g transform="translate(0 0)"><g transform="translate(0 0)"><g transform="translate(0 0)"><g transform="translate(0 9.568)"><path d="M48.148,279.246c2.092,0,9.432-8.977,5.652-10.485-1.075-.43-.133-2.02,1.9-1.748a4.149,4.149,0,0,1,3.792,3.5c4.088,0,5.258,3.1,7.263,5.687l-6.98,8.376c-.631-1.024-1.274-1.83-2.179-1.83-1.9,1.748-5.155,3.986-7.586,1.748C48.111,282.741,46.252,279.246,48.148,279.246Zm8.738-1.748a1.748,1.748,0,1,0-1.748-1.748A1.746,1.746,0,0,0,56.886,277.5Z" transform="translate(-47.355 -265.266)"/><path d="M41.679,279.981H57.418a6.649,6.649,0,0,0,3.291-3.832c.825-3.448-2.728-7.1-2.793-7.168a1.747,1.747,0,0,1,2.475-2.467c.2.2,4.988,5.064,3.722,10.428-.568,2.41-2.247,4.437-4.958,6.076v18.809a2.621,2.621,0,0,1-5.243,0v-7.864H38.184v7.864a2.621,2.621,0,0,1-5.243,0V288.718a6.8,6.8,0,0,1-.9-1.068l7.371-8.848A7.19,7.19,0,0,0,41.679,279.981Z" transform="translate(-18.168 -266)"/></g><g transform="translate(20.376 0)"><rect width="2.621" height="25.18" transform="translate(2.014 21.022) rotate(-140.193)"/></g></g></g></g></svg>