<svg xmlns="http://www.w3.org/2000/svg" xmlns:xlink="http://www.w3.org/1999/xlink" width="2317" height="298" viewBox="0 0 2317 298"><defs><clipPath id="b"><rect width="2317" height="298"/></clipPath></defs><g id="a" clip-path="url(#b)"><path d="M1.5-218.55H44.1a19.208,19.208,0,0,1,11.025,3A13.738,13.738,0,0,1,60.9-207.6l30,114q1.5,5.55,3,11.85a106.782,106.782,0,0,1,2.25,13.2q1.5-7.05,3.3-13.275T102.9-93.6l35.4-114a15.71,15.71,0,0,1,5.775-7.575A17.166,17.166,0,0,1,154.8-218.55h15a18.847,18.847,0,0,1,10.875,2.925A15.042,15.042,0,0,1,186.6-207.6l35.1,114q1.65,5.25,3.45,11.175T228.3-69.75q1.2-6.6,2.475-12.6T233.4-93.6l30-114a14.264,14.264,0,0,1,5.7-7.65,17.76,17.76,0,0,1,10.8-3.3h39.9L252.3,0H206.4L165.3-135.45q-1.05-3.15-2.175-6.9t-2.175-7.95q-1.05,4.2-2.175,7.95t-2.175,6.9L114.9,0H69Zm399.6,60.6a89.836,89.836,0,0,1,32.25,5.55,70.732,70.732,0,0,1,24.975,15.9,71.622,71.622,0,0,1,16.2,25.125Q480.3-96.6,480.3-78.15q0,18.6-5.775,33.525a72.121,72.121,0,0,1-16.2,25.35A71.073,71.073,0,0,1,433.35-3.225,88.764,88.764,0,0,1,401.1,2.4a89.8,89.8,0,0,1-32.475-5.625,72.471,72.471,0,0,1-25.2-16.05,71.072,71.072,0,0,1-16.35-25.35Q321.3-59.55,321.3-78.15q0-18.45,5.775-33.225a70.584,70.584,0,0,1,16.35-25.125,72.127,72.127,0,0,1,25.2-15.9A90.891,90.891,0,0,1,401.1-157.95Zm0,125.85q16.05,0,23.625-11.325T432.3-77.85q0-23.1-7.575-34.35T401.1-123.45q-16.5,0-24.15,11.25T369.3-77.85q0,23.1,7.65,34.425T401.1-32.1Zm174-125.85a89.837,89.837,0,0,1,32.25,5.55,70.732,70.732,0,0,1,24.975,15.9,71.622,71.622,0,0,1,16.2,25.125Q654.3-96.6,654.3-78.15q0,18.6-5.775,33.525a72.121,72.121,0,0,1-16.2,25.35A71.073,71.073,0,0,1,607.35-3.225,88.764,88.764,0,0,1,575.1,2.4a89.8,89.8,0,0,1-32.475-5.625,72.471,72.471,0,0,1-25.2-16.05,71.072,71.072,0,0,1-16.35-25.35Q495.3-59.55,495.3-78.15q0-18.45,5.775-33.225a70.584,70.584,0,0,1,16.35-25.125,72.126,72.126,0,0,1,25.2-15.9A90.891,90.891,0,0,1,575.1-157.95Zm0,125.85q16.05,0,23.625-11.325T606.3-77.85q0-23.1-7.575-34.35T575.1-123.45q-16.5,0-24.15,11.25T543.3-77.85q0,23.1,7.65,34.425T575.1-32.1ZM686.7,0V-123.6l-10.2-2.1a21.064,21.064,0,0,1-8.475-3.75q-3.225-2.55-3.225-7.5v-18.3h21.9v-8.85a65.121,65.121,0,0,1,4.275-24.15,51.11,51.11,0,0,1,12.3-18.45,55.365,55.365,0,0,1,19.575-11.85,76.5,76.5,0,0,1,26.25-4.2,77.3,77.3,0,0,1,10.575.675A73.715,73.715,0,0,1,769.8-219.9l-.9,22.65a7.5,7.5,0,0,1-1.275,3.975,9.009,9.009,0,0,1-2.775,2.55,12.5,12.5,0,0,1-3.675,1.425,18.29,18.29,0,0,1-3.975.45,45.312,45.312,0,0,0-10.95,1.2,17.544,17.544,0,0,0-8.025,4.275,19.233,19.233,0,0,0-4.875,8.1A41.251,41.251,0,0,0,731.7-162.6v7.35h36.6v31.8H733.2V0ZM958.05-99.9q3,5.7,5.775,11.85t5.325,12.6q2.55-6.6,5.4-12.825t5.85-12.075l56.1-110.4a18.339,18.339,0,0,1,3.075-4.425,10.07,10.07,0,0,1,3.525-2.325,14.779,14.779,0,0,1,4.425-.9q2.475-.15,5.775-.15H1092V0h-44.7V-125.7q0-9.15.9-19.8L990.3-33.15a19.075,19.075,0,0,1-7.275,7.95A20.121,20.121,0,0,1,972.6-22.5h-6.9a20.121,20.121,0,0,1-10.425-2.7A19.075,19.075,0,0,1,948-33.15l-58.2-112.5q.6,5.25.9,10.425t.3,9.525V0H846.3V-218.55H885q3.3,0,5.775.15a14.779,14.779,0,0,1,4.425.9,10.069,10.069,0,0,1,3.525,2.325,18.337,18.337,0,0,1,3.075,4.425Zm236.55-58.05a80.092,80.092,0,0,1,28.275,4.8,61.467,61.467,0,0,1,22.05,13.95,63.669,63.669,0,0,1,14.4,22.425A82.288,82.288,0,0,1,1264.5-86.7a65.662,65.662,0,0,1-.45,8.55,13.535,13.535,0,0,1-1.65,5.25,6.281,6.281,0,0,1-3.225,2.7,15.105,15.105,0,0,1-5.175.75h-89.7q2.25,19.5,11.85,28.275T1200.9-32.4a44.3,44.3,0,0,0,13.95-1.95,70.376,70.376,0,0,0,10.425-4.35q4.575-2.4,8.4-4.35A17.44,17.44,0,0,1,1241.7-45a9.612,9.612,0,0,1,8.4,4.05l13.5,16.65a69.118,69.118,0,0,1-15.525,13.425,80.676,80.676,0,0,1-17.1,8.1,92.688,92.688,0,0,1-17.55,4.05A131.7,131.7,0,0,1,1196.7,2.4a87.328,87.328,0,0,1-30.675-5.325,70.487,70.487,0,0,1-25.05-15.825,74.67,74.67,0,0,1-16.95-26.1q-6.225-15.6-6.225-36.3a82.151,82.151,0,0,1,5.325-29.55,72.779,72.779,0,0,1,15.3-24.45,72.846,72.846,0,0,1,24.15-16.65Q1176.75-157.95,1194.6-157.95Zm.9,32.1q-13.35,0-20.85,7.575t-9.9,21.825h58.05a41.042,41.042,0,0,0-1.425-10.8,26.183,26.183,0,0,0-4.65-9.375,23.66,23.66,0,0,0-8.475-6.675A28.983,28.983,0,0,0,1195.5-125.85Zm162.3-32.1a80.092,80.092,0,0,1,28.275,4.8,61.467,61.467,0,0,1,22.05,13.95,63.669,63.669,0,0,1,14.4,22.425A82.288,82.288,0,0,1,1427.7-86.7a65.662,65.662,0,0,1-.45,8.55,13.535,13.535,0,0,1-1.65,5.25,6.281,6.281,0,0,1-3.225,2.7,15.105,15.105,0,0,1-5.175.75h-89.7q2.25,19.5,11.85,28.275T1364.1-32.4a44.3,44.3,0,0,0,13.95-1.95,70.376,70.376,0,0,0,10.425-4.35q4.575-2.4,8.4-4.35A17.44,17.44,0,0,1,1404.9-45a9.612,9.612,0,0,1,8.4,4.05l13.5,16.65a69.118,69.118,0,0,1-15.525,13.425,80.676,80.676,0,0,1-17.1,8.1,92.688,92.688,0,0,1-17.55,4.05A131.7,131.7,0,0,1,1359.9,2.4a87.328,87.328,0,0,1-30.675-5.325,70.487,70.487,0,0,1-25.05-15.825,74.67,74.67,0,0,1-16.95-26.1Q1281-60.45,1281-81.15a82.151,82.151,0,0,1,5.325-29.55,72.779,72.779,0,0,1,15.3-24.45,72.846,72.846,0,0,1,24.15-16.65Q1339.95-157.95,1357.8-157.95Zm.9,32.1q-13.35,0-20.85,7.575t-9.9,21.825H1386a41.042,41.042,0,0,0-1.425-10.8,26.183,26.183,0,0,0-4.65-9.375,23.66,23.66,0,0,0-8.475-6.675A28.983,28.983,0,0,0,1358.7-125.85ZM1509,2.4a54.836,54.836,0,0,1-19.575-3.225,38.879,38.879,0,0,1-14.25-9.15A39,39,0,0,1,1466.4-24.3a55.455,55.455,0,0,1-3-18.75v-80.4h-13.2a8.806,8.806,0,0,1-6.15-2.325q-2.55-2.325-2.55-6.825v-18.15l24.75-4.8,9.15-37.95q1.8-7.2,10.2-7.2h24.3v45.45h37.8v31.8h-37.8V-46.2a14.537,14.537,0,0,0,2.625,8.925,8.868,8.868,0,0,0,7.575,3.525,14.885,14.885,0,0,0,4.275-.525,17.02,17.02,0,0,0,3-1.2q1.275-.675,2.4-1.2a6.149,6.149,0,0,1,2.625-.525,5.412,5.412,0,0,1,3.375.975,12.073,12.073,0,0,1,2.625,3.075l14.1,22.05A64.171,64.171,0,0,1,1532.25-.975,80.474,80.474,0,0,1,1509,2.4Zm108.9-157.95v98.7q0,11.55,5.25,17.85t15.45,6.3a33.144,33.144,0,0,0,14.325-3.15A53.434,53.434,0,0,0,1665.9-44.7V-155.55h46.5V0h-28.8q-8.7,0-11.4-7.8l-2.85-9a90.264,90.264,0,0,1-9.3,7.875,56.919,56.919,0,0,1-10.275,6A61.379,61.379,0,0,1,1638,.975,62.564,62.564,0,0,1,1624.2,2.4a54.458,54.458,0,0,1-22.575-4.425A46.447,46.447,0,0,1,1585.05-14.4a53.974,53.974,0,0,1-10.2-18.75,77.552,77.552,0,0,1-3.45-23.7v-98.7Zm130.5,204.9v-204.9h28.8a12.833,12.833,0,0,1,7.275,1.95,10.411,10.411,0,0,1,4.125,5.85l3.45,11.4a78.179,78.179,0,0,1,9.675-9,63.747,63.747,0,0,1,11.1-6.975,61.171,61.171,0,0,1,12.75-4.575,63.471,63.471,0,0,1,14.925-1.65,47.91,47.91,0,0,1,22.5,5.4,51.848,51.848,0,0,1,17.85,15.6,78.722,78.722,0,0,1,11.775,24.975A120.689,120.689,0,0,1,1896.9-79.05a103.343,103.343,0,0,1-4.875,32.4,81.412,81.412,0,0,1-13.65,25.8,62.882,62.882,0,0,1-21,17.1A59.385,59.385,0,0,1,1830.3,2.4q-12.15,0-20.4-3.45a55.384,55.384,0,0,1-15-9.3v59.7ZM1824.3-123a40.179,40.179,0,0,0-9.225.975,33.894,33.894,0,0,0-7.65,2.775,29.01,29.01,0,0,0-6.525,4.575,67.763,67.763,0,0,0-6,6.375v66a29.394,29.394,0,0,0,11.4,8.175,36.174,36.174,0,0,0,12.9,2.325,27.4,27.4,0,0,0,11.85-2.55,24.147,24.147,0,0,0,9.375-8.175,43.538,43.538,0,0,0,6.225-14.625,91.608,91.608,0,0,0,2.25-21.9,100.743,100.743,0,0,0-1.8-20.7,42.643,42.643,0,0,0-5.025-13.575,19.508,19.508,0,0,0-7.725-7.425A22.157,22.157,0,0,0,1824.3-123Z" transform="translate(374 227)" fill="#fff" stroke="pink" stroke-width="10"/><g transform="translate(-908.81 -2976.755)"><g transform="translate(899.089 2912.469)"><g transform="translate(0 0)"><path d="M119.225,0A119.225,119.225,0,1,1,0,119.225,119.225,119.225,0,0,1,119.225,0Z" transform="matrix(0.999, 0.052, -0.052, 0.999, 109.341, 69.413)" fill="#fff"/><path d="M41.174,96.985c22.479-29.772,38.644-45.635,50.3-50.372A123.091,123.091,0,0,1,288,51.424a56.577,56.577,0,0,1,14.736,10.751c9.623,7.969,20.374,19.472,31.952,34.809,33.832,44.733,50.071,89.391,36.313,99.691-11.052,8.27-38.117-8.12-65.859-38.042a122.994,122.994,0,0,1-234.267.451c-28.419,31.351-54.808,45.936-65.935,37.591C-8.9,186.376,7.342,141.718,41.174,96.985ZM187.929,234.643a113.087,113.087,0,0,0,109.54-84.655c-1.2-1.353-2.406-2.782-3.534-4.21-24.133,16.164-67.213,16.615-85.783-6.09-24.133-29.546-2.331-64.957,21.953-83.151a54.727,54.727,0,0,1,41.049-10.375,113.333,113.333,0,0,0-166.9.376,12.364,12.364,0,0,1,1.654,1.053c13.833,10.225-2.481,69.769-15.036,86.76-4.21,5.714-8.42,11.052-12.555,16.014A113.427,113.427,0,0,0,187.929,234.643Zm62.852-124.5a17.066,17.066,0,1,0-17.066,16.991A17.038,17.038,0,0,0,250.781,110.142Z" transform="matrix(0.891, 0.454, -0.454, 0.891, 110.929, 0)"/><ellipse cx="6.242" cy="6.159" rx="6.242" ry="6.159" transform="matrix(0.891, 0.454, -0.454, 0.891, 271.875, 192.444)"/><path d="M18.691,0A18.609,18.609,0,1,1,0,18.608,18.659,18.659,0,0,1,18.691,0Zm4.2,17.7a5.27,5.27,0,1,0-5.352-5.27A5.434,5.434,0,0,0,22.89,17.7Z" transform="matrix(0.891, 0.454, -0.454, 0.891, 179.674, 137.966)" fill="#b4871f"/><path d="M8.8,37.918a16.627,16.627,0,0,0,27.748-11.61v-.082C30.779,22.851,22.3,16.675,22.3,9.594,22.3-1.192,30.7.043,41.566.043c10.786,0,19.926-1.235,19.926,9.551,0,7.081-8.481,13.257-14.244,16.632h0A16.531,16.531,0,0,0,63.8,42.118a17.114,17.114,0,0,0,11.2-4.282,5.427,5.427,0,0,1,7.575.329,5.323,5.323,0,0,1-.329,7.493,26.988,26.988,0,0,1-18.361,7.081,27.291,27.291,0,0,1-21.9-10.951,27.364,27.364,0,0,1-40.263,3.87,5.323,5.323,0,0,1-.329-7.493A5.217,5.217,0,0,1,8.8,37.918Z" transform="matrix(0.891, 0.454, -0.454, 0.891, 172.101, 201.752)"/><path d="M18.691,0A18.609,18.609,0,1,1,0,18.608,18.659,18.659,0,0,1,18.691,0Zm4.2,17.7a5.27,5.27,0,1,0-5.352-5.27A5.434,5.434,0,0,0,22.89,17.7Z" transform="matrix(0.891, 0.454, -0.454, 0.891, 260.499, 179.969)" fill="#b4871f"/></g></g></g></g></svg>