<svg xmlns="http://www.w3.org/2000/svg" version="1.1" xmlns:xlink="http://www.w3.org/1999/xlink" xmlns:svgjs="http://svgjs.dev/svgjs" width="1000" height="1000"><style>
    #light-icon {
      display: inline;
    }
    #dark-icon {
      display: none;
    }

    @media (prefers-color-scheme: dark) {
      #light-icon {
        display: none;
      }
      #dark-icon {
        display: inline;
      }
    }
  </style><g id="light-icon"><svg xmlns="http://www.w3.org/2000/svg" version="1.1" xmlns:xlink="http://www.w3.org/1999/xlink" xmlns:svgjs="http://svgjs.dev/svgjs" width="1000" height="1000"><g clip-path="url(#SvgjsClipPath1182)"><rect width="1000" height="1000" fill="#ffffff"></rect><g transform="matrix(31.25,0,0,31.25,0,0)"><svg xmlns="http://www.w3.org/2000/svg" version="1.1" xmlns:xlink="http://www.w3.org/1999/xlink" xmlns:svgjs="http://svgjs.dev/svgjs" width="32" height="32"><svg xmlns="http://www.w3.org/2000/svg" xmlns:xlink="http://www.w3.org/1999/xlink" width="32" height="32" viewBox="0 0 32 32"><defs><clipPath id="a"><rect width="32" height="32" transform="translate(941 2913)" fill="#fff"></rect></clipPath><clipPath id="SvgjsClipPath1182"><rect width="1000" height="1000" x="0" y="0" rx="500" ry="500"></rect></clipPath></defs><g transform="translate(-941 -2913)"><rect width="32" height="32" transform="translate(941 2913)" fill="#fff"></rect><g clip-path="url(#a)"><ellipse cx="0.653" cy="0.645" rx="0.653" ry="0.645" transform="matrix(0.891, 0.454, -0.454, 0.891, 963.791, 2927.599)"></ellipse><path d="M3.647,8.589C5.637,5.953,7.069,4.548,8.1,4.128a10.9,10.9,0,0,1,17.405.426,5.011,5.011,0,0,1,1.305.952,18.453,18.453,0,0,1,2.83,3.083c3,3.962,4.435,7.917,3.216,8.829-.979.732-3.376-.719-5.833-3.369a10.893,10.893,0,0,1-20.748.04C3.76,16.866,1.423,18.158.437,17.419-.788,16.506.65,12.551,3.647,8.589Zm13,12.192a10.016,10.016,0,0,0,9.7-7.5c-.107-.12-.213-.246-.313-.373-2.137,1.432-5.953,1.472-7.6-.539-2.137-2.617-.206-5.753,1.944-7.364a4.847,4.847,0,0,1,3.636-.919,10.037,10.037,0,0,0-14.782.033,1.1,1.1,0,0,1,.146.093c1.225.906-.22,6.179-1.332,7.684-.373.506-.746.979-1.112,1.418A10.046,10.046,0,0,0,16.644,20.781ZM22.21,9.755a1.511,1.511,0,1,0-1.511,1.5A1.509,1.509,0,0,0,22.21,9.755Z" transform="matrix(0.891, 0.454, -0.454, 0.891, 949.518, 2910.469)"></path><path d="M1.927,0A1.919,1.919,0,1,1,0,1.919,1.924,1.924,0,0,1,1.927,0ZM2.36,1.825a.543.543,0,1,0-.552-.543A.56.56,0,0,0,2.36,1.825Z" transform="matrix(0.891, 0.454, -0.454, 0.891, 954.764, 2922.423)" fill="#b1832d"></path><path d="M.793,3.268A1.517,1.517,0,0,0,1.8,3.637,1.462,1.462,0,0,0,3.294,2.267V2.26C2.774,1.969,2.01,1.437,2.01.827,2.01-.1,2.767,0,3.747,0s1.8-.106,1.8.823c0,.61-.764,1.142-1.284,1.433h0A1.462,1.462,0,0,0,5.751,3.629,1.584,1.584,0,0,0,6.76,3.261a.505.505,0,0,1,.683.028.445.445,0,0,1-.03.646A2.542,2.542,0,0,1,3.784,3.6a2.488,2.488,0,0,1-1.974.944,2.533,2.533,0,0,1-1.655-.61.445.445,0,0,1-.03-.646A.486.486,0,0,1,.793,3.268Z" transform="matrix(0.891, 0.454, -0.454, 0.891, 955.085, 2929.036)"></path><path d="M1.957,0A1.948,1.948,0,1,1,0,1.948,1.953,1.953,0,0,1,1.957,0ZM2.4,1.853a.552.552,0,1,0-.56-.552A.569.569,0,0,0,2.4,1.853Z" transform="matrix(0.891, 0.454, -0.454, 0.891, 962.6, 2926.293)" fill="#b1832d"></path></g></g></svg></svg></g></g></svg></g><g id="dark-icon"><svg xmlns="http://www.w3.org/2000/svg" version="1.1" xmlns:xlink="http://www.w3.org/1999/xlink" xmlns:svgjs="http://svgjs.dev/svgjs" width="1000" height="1000"><g clip-path="url(#SvgjsClipPath1183)"><rect width="1000" height="1000" fill="#ffffff"></rect><g transform="matrix(25,0,0,25,100,100)"><svg xmlns="http://www.w3.org/2000/svg" version="1.1" xmlns:xlink="http://www.w3.org/1999/xlink" xmlns:svgjs="http://svgjs.dev/svgjs" width="32" height="32"><svg xmlns="http://www.w3.org/2000/svg" xmlns:xlink="http://www.w3.org/1999/xlink" width="32" height="32" viewBox="0 0 32 32"><defs><clipPath id="a"><rect width="32" height="32" transform="translate(941 2913)" fill="#fff"></rect></clipPath><clipPath id="SvgjsClipPath1183"><rect width="1000" height="1000" x="0" y="0" rx="500" ry="500"></rect></clipPath></defs><g transform="translate(-941 -2913)"><rect width="32" height="32" transform="translate(941 2913)" fill="#fff"></rect><g clip-path="url(#a)"><ellipse cx="0.653" cy="0.645" rx="0.653" ry="0.645" transform="matrix(0.891, 0.454, -0.454, 0.891, 963.791, 2927.599)"></ellipse><path d="M3.647,8.589C5.637,5.953,7.069,4.548,8.1,4.128a10.9,10.9,0,0,1,17.405.426,5.011,5.011,0,0,1,1.305.952,18.453,18.453,0,0,1,2.83,3.083c3,3.962,4.435,7.917,3.216,8.829-.979.732-3.376-.719-5.833-3.369a10.893,10.893,0,0,1-20.748.04C3.76,16.866,1.423,18.158.437,17.419-.788,16.506.65,12.551,3.647,8.589Zm13,12.192a10.016,10.016,0,0,0,9.7-7.5c-.107-.12-.213-.246-.313-.373-2.137,1.432-5.953,1.472-7.6-.539-2.137-2.617-.206-5.753,1.944-7.364a4.847,4.847,0,0,1,3.636-.919,10.037,10.037,0,0,0-14.782.033,1.1,1.1,0,0,1,.146.093c1.225.906-.22,6.179-1.332,7.684-.373.506-.746.979-1.112,1.418A10.046,10.046,0,0,0,16.644,20.781ZM22.21,9.755a1.511,1.511,0,1,0-1.511,1.5A1.509,1.509,0,0,0,22.21,9.755Z" transform="matrix(0.891, 0.454, -0.454, 0.891, 949.518, 2910.469)"></path><path d="M1.927,0A1.919,1.919,0,1,1,0,1.919,1.924,1.924,0,0,1,1.927,0ZM2.36,1.825a.543.543,0,1,0-.552-.543A.56.56,0,0,0,2.36,1.825Z" transform="matrix(0.891, 0.454, -0.454, 0.891, 954.764, 2922.423)" fill="#b1832d"></path><path d="M.793,3.268A1.517,1.517,0,0,0,1.8,3.637,1.462,1.462,0,0,0,3.294,2.267V2.26C2.774,1.969,2.01,1.437,2.01.827,2.01-.1,2.767,0,3.747,0s1.8-.106,1.8.823c0,.61-.764,1.142-1.284,1.433h0A1.462,1.462,0,0,0,5.751,3.629,1.584,1.584,0,0,0,6.76,3.261a.505.505,0,0,1,.683.028.445.445,0,0,1-.03.646A2.542,2.542,0,0,1,3.784,3.6a2.488,2.488,0,0,1-1.974.944,2.533,2.533,0,0,1-1.655-.61.445.445,0,0,1-.03-.646A.486.486,0,0,1,.793,3.268Z" transform="matrix(0.891, 0.454, -0.454, 0.891, 955.085, 2929.036)"></path><path d="M1.957,0A1.948,1.948,0,1,1,0,1.948,1.953,1.953,0,0,1,1.957,0ZM2.4,1.853a.552.552,0,1,0-.56-.552A.569.569,0,0,0,2.4,1.853Z" transform="matrix(0.891, 0.454, -0.454, 0.891, 962.6, 2926.293)" fill="#b1832d"></path></g></g></svg></svg></g></g></svg></g></svg>